<?xml version="1.0" encoding="utf-8"?>
<!-- Generator: Adobe Illustrator 20.0.0, SVG Export Plug-In . SVG Version: 6.00 Build 0)  -->
<svg version="1.1" id="Layer_1" xmlns="http://www.w3.org/2000/svg" xmlns:xlink="http://www.w3.org/1999/xlink" x="0px" y="0px"
	 viewBox="0 0 128 128" style="enable-background:new 0 0 128 128;" xml:space="preserve">
<style type="text/css">
	.st0{fill-rule:evenodd;clip-rule:evenodd;fill:#003843;}
	.st1{fill-rule:evenodd;clip-rule:evenodd;fill:#008FDC;}
	.st2{fill:#008FDC;}
	.st3{fill:#003843;}
</style>
<g>
	<g>
		<path class="st2" d="M93.7,61.9c-2.8-1.8-5.8-1.8-7.9-1c-0.6,0.2-1.2,0.2-1.8,0.2c0,0-18.9-17.3-18.9-17.3
			c-1.6-1.6-3.1-3.2-4.7-4.8c-2.6-2.6-5.2-5.3-7.8-7.9c-0.6-0.6-1.9-1.6-2.2-2.4c-0.1-0.2-0.1-0.3-0.1-0.5c-0.1-1.3,0.3-2.5,0.4-3.7
			c0.1-1.3,0-2.6-0.3-3.9c-0.7-2.3-2.3-4.1-4.2-5.4c-2.5-1.8-5.2-2.5-8.3-2.2c-1.6,0.2-3.3,0.6-4.7,1.3c0,0,0,0-0.1,0l-0.5,0.8
			c0,0,5.4,3.5,6.1,3.9c0.8,0.5,3.1,3.1,0.3,7.2c-2.7,4.2-5.7,2.8-6.6,2.2c-0.7-0.4-6.1-3.8-6.1-3.8l-0.5,0.8c0,0-0.3,7.3,5.7,11.1
			c1.4,0.9,3.1,1.5,4.8,1.5c0.7,0,1.5-0.1,2.2-0.2c0.8-0.2,1.6-0.5,2.4-0.5c0.1,0,0.2,0,0.3,0.1c0.1,0,0.1,0.1,0.2,0.1
			c2.4,2.2,4.8,4.4,7.3,6.7c2.8,2.5,5.6,5.1,8.3,7.6c1,0.9,2.1,1.9,3.1,2.8c0,0,14.7,14.9,14.7,14.9c0.2,0.7,0.2,1.5,0,2.7
			c-0.5,2.5-0.5,5,0.8,7.3c1.9,3.4,5.5,5.7,9.3,6c1.7,0.2,3.5-0.1,5.2-0.5c0.4-0.1,1.9-0.4,2.1-0.8c0,0,0.5-0.8,0.5-0.8
			s-5.4-3.5-6.1-3.9c-0.8-0.5-3.1-3.1-0.3-7.3c2.7-4.2,5.7-2.8,6.6-2.2c0.7,0.4,6.1,3.8,6.1,3.8l0.5-0.8
			C99.3,73,99.7,65.8,93.7,61.9z"/>
	</g>
	<path class="st3" d="M40.1,39.7c-1.4-0.2-3.3,0.3-4.6,0.4c-0.2,0-0.4,0-0.6,0.1c-0.5,0.3-0.5,1-0.7,1.6c-0.2,0.6-0.8,0.9-1.4,1.1
		c-2.5,0.7-5.4-0.9-6.4,2.5c-0.9,3.1-2.4,11.7,2.7,11.7c1.2,0,3.3,0,3.3,0c0.1,0,0.1,0,0.2,0c2.1,0.2,3,5.3,3.8,6.9
		c1.2,2.3-1.1,3.7-2.3,5.3c-1.9,2.4,0.4,5.4,2.2,7.1c1.3,1.2,2.6,2.6,4.3,3.3c1.6,0.6,2.9-0.1,4-1.2c1.9-2,3.1-2.5,5.6-1.2
		c1.5,0.7,4.2,1,5.3,2.3c0.6,0.6,0.6,1.6,0.6,2.4s-0.3,1.7-0.1,2.5c0.3,1.6,1.8,2.9,3.4,3.4c2.6,0.8,6,0.3,8.5-0.7
		c0.8-0.3,1.6-0.9,2-1.6c0.5-1,0.3-2.2,0.3-3.3c0-0.9,0-2.2,0.8-2.9c0.5-0.4,1.3-0.6,2-0.8c-0.8-1.9-0.6-4.1-0.4-6.1
		c0.2-1.4-0.1-3.9-2-4.2C70,68.2,68.6,69,68,69.1c-1,0.2-2,0.4-3,0.5c-6.6,0.6-13.1-2.6-17.2-7.8c-2-2.6-3.4-5.7-3.9-8.9
		c-0.3-1.6-0.3-3.3-0.2-4.9c0.1-1.4,1.5-3.9,0.5-5.2c-0.8-1.1-2.3-2.6-3.7-3C40.4,39.8,40.3,39.7,40.1,39.7z M62.9,12.8
		c-0.1,0-0.3,0-0.4,0c-1,0-2.1,0-3.1,0.1c-0.6,0.1-1.1,0.2-1.6,0.5c-0.7,0.4-1.3,1-1.5,1.8c0,0.1,0,0.2,0,0.4c0,0.1,0,0.3,0,0.5
		c0,0.8,0,1.6,0,2.3c0,0.8,0.1,1.5-0.5,2.2c-0.4,0.4-0.9,0.6-1.4,0.7c-0.2,0-1.6,0.4-1.6,0.5c0.2,1.4,0,2.8-0.2,4.2
		c-0.1,0.6-0.2,1.2-0.1,1.8c0.1,0.5,0.7,0.9,1.1,1.3c0.9,0.9,1.7,1.8,2.6,2.7c1.5-0.6,3.1-1,4.8-1.2c0.7-0.1,1.3-0.1,2-0.1
		c10-0.2,18.6,7.2,19.8,17.3c0.4,3,0,5.9-0.9,8.5c0.7,0.7,1.5,1.4,2.2,2c0.5,0.9,1.5,0.4,2.3,0.3c1.9-0.5,3.9-0.4,5.7,0.2
		c0-0.1,0.1-0.3,0.1-0.4c0.2-0.7,0.8-1.3,1.6-1.4c0.1,0,0.1-0.1,0.2-0.1h3.3c0.1,0,0.3,0,0.4,0c1.1,0,2.3-0.8,2.6-1.9
		c0.4-1.6,0.8-3.2,0.8-4.9c0,0,0-0.4,0-0.4c0-1-0.3-2-0.4-3c-0.1-0.6-0.3-1.2-0.4-1.7c-0.3-1.1-1.3-1.9-2.4-1.9c-0.1,0-0.3,0-0.5,0
		c-1.2,0-3.3,0-3.3,0c-0.1,0-0.1,0-0.2,0c-0.8-0.1-1.4-0.6-1.6-1.3c-0.7-2.3-1.6-4.5-2.8-6.5c0.1,0.1,0.1,0.2,0.2,0.3
		c-0.3-0.6-0.3-1.5,0.2-2.1c0-0.1,0.1-0.1,0.1-0.1l2.3-2.3c0.1-0.1,0.2-0.2,0.3-0.3c0.8-0.8,0.9-2.1,0.3-3.1c-0.8-1.4-1.9-2.7-3.1-4
		c-0.1-0.1-0.2-0.2-0.3-0.3c-0.7-0.7-1.5-1.4-2.3-2c-0.5-0.4-1-0.7-1.4-1c-0.9-0.6-2.3-0.4-3.1,0.3c-0.1,0.1-0.2,0.2-0.4,0.4
		c-0.5,0.5-2.3,2.3-2.3,2.3c0,0-0.1,0.1-0.1,0.1c-0.6,0.5-1.4,0.5-2.1,0.2c0.2,0.1,0.4,0.2,0.5,0.3c-2.1-1.2-4.4-2.2-6.7-2.9
		c-1-0.3-1.4-1.2-1.5-2.2c0-0.6,0-1.2,0-1.8c0-0.6,0.1-1.3,0-1.9c-0.2-1-1.1-1.6-2-1.9c-0.9-0.2-1.8-0.2-2.7-0.3
		C64.5,12.9,63.7,12.9,62.9,12.8z"/>
</g>
</svg>
