<?xml version="1.0" encoding="utf-8"?>
<!-- Generator: Adobe Illustrator 20.0.0, SVG Export Plug-In . SVG Version: 6.00 Build 0)  -->
<svg version="1.1" id="Layer_1" xmlns="http://www.w3.org/2000/svg" xmlns:xlink="http://www.w3.org/1999/xlink" x="0px" y="0px"
	 viewBox="0 0 128 128" style="enable-background:new 0 0 128 128;" xml:space="preserve">
<style type="text/css">
	.st0{fill-rule:evenodd;clip-rule:evenodd;fill:#003843;}
	.st1{fill-rule:evenodd;clip-rule:evenodd;fill:#008FDC;}
	.st2{fill:#008FDC;}
	.st3{fill:#003843;}
</style>
<g>
	<g>
		<path class="st2" d="M72,48.6V44c0-4.9-4.1-8.9-9-8.9c-4.9,0-9,4-9,8.9v4.6c-2,0.3-3,1.6-3,3.1v10.2c0,1.7,2.1,2.2,3.9,2.2h16.5
			c1.7,0,3.6-0.4,3.6-2.2V51.7C75,50.2,73,48.9,72,48.6z M65,58.5V61h-4v-2.5c-1-0.5-1-1.4-1-2.4c0-1.5,1.4-2.8,3-2.8
			c1.5,0,3.1,1.2,3.1,2.8C66.1,57.1,65,58,65,58.5z M67,49h-9v-5c0-2.3,2.2-4.3,4.5-4.3c2.3,0,4.5,1.9,4.5,4.3V49z"/>
	</g>
	<g>
		<g>
			<path class="st3" d="M96,37.5v-10c0-1.5-0.8-3.4-3.6-3.8c-0.6-0.1-1.3-0.1-1.8-0.2c-1.8-0.2-3.5-0.4-5.2-0.8
				c-6.4-1.4-12.7-4.3-19.5-9.1c-0.9-0.6-1.7-1.2-2.7-1.2s-1.8,0.5-2.7,1.1c-9.2,6.3-17.3,9.5-25.9,10.1C32,24,31,25.2,31,27.8v6.5
				c0,6-0.2,12.2-0.1,18.3c0,2.1,0.2,4.4,0.7,6.6c1.2,5.2,3.9,10,8.4,14.5c5.7,5.7,12.8,10.2,21.8,13.6c0.4,0.2,0.9,0.2,1.3,0.2
				c0.6,0,1.2-0.1,1.7-0.4c0.5-0.2,1.1-0.5,1.6-0.7c2.2-1,4.5-1.9,6.7-3.1c7.3-3.8,12.8-8.4,16.8-13.8c3.5-4.8,5.6-9.6,5.8-14.7
				c0-1,0.3-2.1,0.3-3.3v-0.1V41.5v-0.3V37.5z M91,40.9v0.4v9.9v0.4c0,1.2,0.1,2.2,0.1,3.2c-0.2,4.2-1.7,8.3-4.7,12.4
				c-3.6,4.9-8.6,9.1-15.3,12.6c-2,1.1-4.2,1.8-6.3,2.8c-0.5,0.2-1,0.5-1.6,0.5h0c-8.4-3-15-7.1-20.2-12.4
				c-3.9-3.9-6.3-7.9-7.3-12.4c-0.5-2-0.6-3.8-0.6-5.7c-0.1-6.1,0-12.2,0-18.2V28c9-0.6,18.2-4,27.9-10.8c0.1-0.1,0.2-0.1,0.3-0.2
				c0.1,0.1,0.2,0.1,0.3,0.2c7.2,5,14.1,8.2,21,9.7c1.9,0.4,3.5,0.6,5.4,0.8c0.5,0.1,1.2,0.1,1.2,0.2V40.9z M91.4,40.9"/>
		</g>
	</g>
</g>
</svg>
