<?xml version="1.0" encoding="utf-8"?>
<!-- Generator: Adobe Illustrator 20.0.0, SVG Export Plug-In . SVG Version: 6.00 Build 0)  -->
<svg version="1.1" id="Layer_1" xmlns="http://www.w3.org/2000/svg" xmlns:xlink="http://www.w3.org/1999/xlink" x="0px" y="0px"
	 viewBox="0 0 128 128" style="enable-background:new 0 0 128 128;" xml:space="preserve">
<style type="text/css">
	.st0{fill-rule:evenodd;clip-rule:evenodd;fill:#003843;}
	.st1{fill-rule:evenodd;clip-rule:evenodd;fill:#008FDC;}
	.st2{fill:#008FDC;}
	.st3{fill:#003843;}
</style>
<g>
	<path class="st0" d="M52.5,39.7c0,0,0.6,0,1.6,0c0.8,0,1.5-0.7,1.5-1.5c0-0.8-0.7-1.5-1.5-1.5c-1.1,0-1.6,0-1.7,0
		c-0.8,0-1.5,0.7-1.4,1.5C51,39.1,51.6,39.7,52.5,39.7L52.5,39.7z"/>
	<path class="st0" d="M59.7,60c0.1,0.7,0.8,1.2,1.5,1.2l0.3,0c1.1-0.2,2.2-0.4,3.3-0.7c0.8-0.2,1.3-0.9,1.2-1.8
		c-0.2-0.8-0.9-1.3-1.8-1.2c-1.1,0.2-2.2,0.4-3.3,0.7C60,58.4,59.5,59.2,59.7,60z"/>
	<path class="st0" d="M67.3,39.8c1.1,0.1,2.2,0.1,3.3,0.2l0.1,0c0.8,0,1.4-0.6,1.5-1.4c0.1-0.8-0.6-1.5-1.4-1.6
		c-1.1-0.1-2.2-0.1-3.4-0.2c-0.8,0-1.5,0.6-1.6,1.4C65.9,39.1,66.5,39.8,67.3,39.8z"/>
	<path class="st0" d="M59.1,39.8c1.1,0,2.2,0.2,3.3,0.2h0c0.8,0,1.5-0.8,1.5-1.6c0-0.8-0.6-1.4-1.5-1.4c-1.1,0-2.2,0.1-3.4,0.1h0
		c-0.8,0-1.5,0.6-1.5,1.4C57.6,39.2,58.2,39.8,59.1,39.8z"/>
	<path class="st0" d="M87.3,50.4c-0.7,0.5-1.6,1.1-2.6,1.6c-0.7,0.4-1,1.3-0.7,2c0.3,0.5,0.8,0.8,1.3,0.8c0.2,0,0.4,0,0.7-0.2
		c1.2-0.6,2.2-1.2,3.1-1.9c0.7-0.5,0.8-1.4,0.3-2.1C88.8,50.1,87.9,49.9,87.3,50.4z"/>
	<path class="st0" d="M83.5,41.9c1.1,0.3,2.1,0.6,3,1c0.2,0.1,0.4,0.1,0.6,0.1c0.6,0,1.1-0.3,1.4-0.9c0.3-0.8,0-1.6-0.8-1.9
		c-1-0.4-2.1-0.8-3.4-1.1c-0.8-0.2-1.6,0.3-1.8,1C82.3,40.9,82.7,41.7,83.5,41.9z"/>
	<path class="st0" d="M75.5,40.5c1.1,0.1,2.2,0.3,3.2,0.4l0.2,0c0.7,0,1.3-0.5,1.5-1.3c0.1-0.8-0.4-1.6-1.2-1.7
		c-1.1-0.2-2.2-0.3-3.4-0.5c-0.8-0.1-1.6,0.5-1.6,1.3C74.1,39.6,74.7,40.4,75.5,40.5z"/>
	<path class="st0" d="M77.1,54.7c-0.8,0.2-1.3,1-1,1.8c0.2,0.7,0.8,1.1,1.4,1.1c0.1,0,0.3,0,0.4-0.1c1.2-0.3,2.3-0.6,3.3-1
		c0.8-0.3,1.2-1.1,1-1.9c-0.3-0.8-1.1-1.2-1.9-1C79.2,54.1,78.2,54.4,77.1,54.7z"/>
	<path class="st0" d="M67.9,58.3c0.1,0.7,0.8,1.2,1.5,1.2l0.3,0c1.2-0.3,2.3-0.5,3.3-0.7c0.8-0.2,1.3-1,1.1-1.8
		c-0.2-0.8-1-1.3-1.8-1.1c-1,0.2-2,0.4-3.2,0.7C68.2,56.7,67.7,57.5,67.9,58.3z"/>
	<path class="st0" d="M55.9,59.3c-1.2,0.3-2.3,0.6-3.3,0.8c-0.8,0.2-1.3,1-1,1.8c0.2,0.7,0.8,1.1,1.4,1.1c0.1,0,0.3,0,0.4-0.1
		c1-0.3,2-0.5,3.2-0.8c0.8-0.2,1.3-1,1.1-1.8C57.5,59.6,56.7,59.1,55.9,59.3z"/>
	<path class="st0" d="M60.5,82.1c-1.1-0.3-2.2-0.5-3.2-0.8c-0.8-0.2-1.6,0.2-1.8,1c-0.2,0.8,0.2,1.6,1,1.8c1,0.3,2.2,0.6,3.3,0.9
		c0.1,0,0.2,0,0.4,0c0.7,0,1.3-0.5,1.4-1.1C61.8,83.1,61.3,82.3,60.5,82.1z"/>
	<path class="st0" d="M68.6,83.7c-1.1-0.2-2.2-0.4-3.2-0.6c-0.8-0.2-1.6,0.4-1.7,1.2c-0.2,0.8,0.4,1.6,1.2,1.7
		c1.1,0.2,2.2,0.4,3.3,0.6l0.2,0c0.7,0,1.3-0.5,1.5-1.2C69.9,84.6,69.4,83.9,68.6,83.7z"/>
	<path class="st0" d="M89.8,46c0,0.4-0.1,0.9-0.2,1.3c-0.2,0.8,0.2,1.6,1,1.8c0.1,0,0.3,0.1,0.4,0.1c0.6,0,1.2-0.4,1.4-1.1
		c0.2-0.7,0.3-1.4,0.3-2.1c0-0.8-0.2-1.5-0.5-2.2c-0.4-0.7-1.3-1-2-0.6c-0.7,0.4-1,1.3-0.6,2C89.8,45.5,89.8,45.7,89.8,46z"/>
	<path class="st0" d="M52.7,79.8c-1.1-0.4-2.1-0.8-3-1.2c-0.7-0.3-1.6,0-2,0.7c-0.3,0.7,0,1.6,0.7,2c1,0.5,2.1,0.9,3.2,1.3
		c0.2,0.1,0.3,0.1,0.5,0.1c0.6,0,1.2-0.4,1.4-1C53.8,80.9,53.5,80.1,52.7,79.8z"/>
	<path class="st0" d="M41.9,70.6l0-0.2c0-0.7,0.2-1.4,0.6-2c0.5-0.7,0.3-1.6-0.4-2.1c-0.7-0.5-1.6-0.3-2.1,0.4
		C39.4,67.8,39,69,39,70.4l0,0.3c0,0.8,0.7,1.4,1.5,1.4l0.1,0C41.3,72.1,42,71.4,41.9,70.6z"/>
	<path class="st0" d="M45.6,76.2c-0.9-0.6-1.6-1.3-2.2-2c-0.5-0.6-1.5-0.7-2.1-0.2c-0.6,0.5-0.7,1.5-0.2,2.1
		c0.7,0.9,1.6,1.7,2.7,2.5c0.3,0.2,0.6,0.3,0.9,0.3c0.5,0,0.9-0.2,1.2-0.6C46.4,77.6,46.3,76.7,45.6,76.2z"/>
	<path class="st0" d="M47.7,61.7c-1.2,0.5-2.3,0.9-3.2,1.4c-0.7,0.4-1,1.3-0.6,2c0.3,0.5,0.8,0.8,1.3,0.8c0.2,0,0.5-0.1,0.7-0.2
		c0.8-0.4,1.8-0.9,2.9-1.3c0.8-0.3,1.2-1.1,0.9-1.9C49.3,61.8,48.5,61.4,47.7,61.7z"/>
	<path class="st0" d="M75.1,84.6c0,0-0.6-0.1-1.6-0.2c-0.8-0.1-1.6,0.5-1.7,1.3c-0.1,0.8,0.5,1.6,1.3,1.7c1.1,0.1,1.7,0.2,1.7,0.2
		l0.1,0c0.8,0,1.4-0.6,1.5-1.3C76.5,85.4,75.9,84.7,75.1,84.6z"/>
	<path class="st1" d="M40.6,23.4c0-2.9,2.3-5.2,5.2-5.2c2.9,0,5.2,2.3,5.2,5.2c0,2.9-2.3,5.2-5.2,5.2C42.9,28.6,40.6,26.3,40.6,23.4
		z M52.8,31.3c2.3-2.9,3.6-5.5,3.6-8.1c0-5.9-4.8-10.6-10.6-10.6c-5.9,0-10.6,4.7-10.6,10.6c0,2.6,0.8,5.1,3.2,8.1
		c2.1,2.6,7.5,8.4,7.5,8.4S50.5,34.2,52.8,31.3z"/>
	<path class="st1" d="M82.1,76.1c-2.9,0-5.2-2.3-5.2-5.2c0-2.9,2.3-5.2,5.2-5.2c2.9,0,5.2,2.3,5.2,5.2C87.3,73.8,85,76.1,82.1,76.1z
		 M82.1,60.1c-5.9,0-10.6,4.7-10.6,10.6c0,2.6,0.8,5.1,3.2,8.1c2.1,2.6,7.5,8.4,7.5,8.4s4.7-5.5,7-8.4c2.3-2.9,3.6-5.5,3.6-8.1
		C92.8,64.9,88,60.1,82.1,60.1z"/>
</g>
</svg>
