<?xml version="1.0" encoding="utf-8"?>
<!-- Generator: Adobe Illustrator 20.0.0, SVG Export Plug-In . SVG Version: 6.00 Build 0)  -->
<svg version="1.1" id="Layer_1" xmlns="http://www.w3.org/2000/svg" xmlns:xlink="http://www.w3.org/1999/xlink" x="0px" y="0px"
	 viewBox="0 0 128 128" style="enable-background:new 0 0 128 128;" xml:space="preserve">
<style type="text/css">
	.st0{fill-rule:evenodd;clip-rule:evenodd;fill:#003843;}
	.st1{fill-rule:evenodd;clip-rule:evenodd;fill:#008FDC;}
	.st2{fill:#008FDC;}
	.st3{fill:#003843;}
</style>
<g>
	<path class="st3" d="M50.5,65.2c-1,0-2,0.3-2.9,0.8c-3,1.7-4,5.5-2.3,8.5c1.7,3,5.5,4,8.5,2.2c3-1.7,4-5.5,2.2-8.5
		C54.9,66.2,52.7,65.1,50.5,65.2z M94.3,47.5c-1,0-2,0.3-2.9,0.8c-3,1.7-4,5.5-2.2,8.5c1.7,3,5.5,4,8.5,2.3c3-1.7,4-5.5,2.3-8.5
		C98.6,48.5,96.5,47.4,94.3,47.5z M32,36.4c-1.1,0-2.2,0.2-3.2,0.8c-3,1.7-4,5.5-2.3,8.5c1.7,3,5.5,4,8.5,2.2c3-1.7,4-5.5,2.2-8.5
		C36.1,37.5,34,36.4,32,36.4L32,36.4z M87.9,14.6c-1,0-2,0.3-2.9,0.8c-3,1.7-4,5.5-2.2,8.5c1.7,3,5.5,4,8.5,2.2c3-1.7,4-5.5,2.2-8.5
		C92.2,15.6,90.1,14.5,87.9,14.6z M43.3,12c-1.1,0-2.2,0.2-3.2,0.8c-3,1.7-4,5.5-2.3,8.5c1.7,3,5.5,4,8.5,2.2c3-1.7,4-5.5,2.2-8.5
		C47.4,13.1,45.4,12,43.3,12z"/>
	<path class="st3" d="M59.5,45l-9.7,25.3c-0.2,0.6,0.1,1.4,0.7,1.6c0.6,0.2,1.4-0.1,1.6-0.7l9.7-25.2C61.1,45.7,60.3,45.4,59.5,45z
		 M75.6,39.8c-0.4,0.8-0.8,1.5-1.4,2.1L93,54.1c0.6,0.4,1.4,0.2,1.7-0.4c0.4-0.6,0.2-1.4-0.4-1.7L75.6,39.8z M53.3,36l-21.5,5.4
		c-0.7,0.1-1.1,0.8-1,1.5c0.1,0.7,0.8,1.1,1.5,1l0.1,0l21.5-5.4C53.6,37.7,53.4,36.9,53.3,36L53.3,36z M87.7,19.5
		c-0.2,0-0.5,0.1-0.7,0.2l-12.8,7.7c0.5,0.7,0.9,1.4,1.3,2.2l12.8-7.7c0.6-0.3,0.8-1.1,0.5-1.7C88.6,19.7,88.2,19.5,87.7,19.5z
		 M43.3,17.2c-0.7,0-1.2,0.6-1.2,1.3c0,0.4,0.2,0.7,0.5,1l12.3,9.1c0.4-0.7,1-1.4,1.5-2l-12.3-9.1C43.9,17.3,43.6,17.2,43.3,17.2z"
		/>
	<path class="st2" d="M60.3,26.5c4.5-2.6,10.2-1.1,12.8,3.4c2.6,4.5,1.1,10.2-3.4,12.8l0,0c-4.5,2.6-10.2,1.1-12.8-3.4
		C54.3,34.8,55.8,29.1,60.3,26.5L60.3,26.5z"/>
</g>
</svg>
