<?xml version="1.0" encoding="utf-8"?>
<!-- Generator: Adobe Illustrator 18.1.0, SVG Export Plug-In . SVG Version: 6.00 Build 0)  -->
<!DOCTYPE svg PUBLIC "-//W3C//DTD SVG 1.1//EN" "http://www.w3.org/Graphics/SVG/1.1/DTD/svg11.dtd">
<svg version="1.1" id="Layer_1" xmlns="http://www.w3.org/2000/svg" xmlns:xlink="http://www.w3.org/1999/xlink" x="0px" y="0px"
	 viewBox="0 0 70 70" enable-background="new 0 0 70 70" xml:space="preserve">
<circle fill="#1364B5" cx="35" cy="35.3" r="34.5"/>
<g>
	<polygon fill="#B3B3B3" points="34.4,8.5 7.8,17.8 12,52.7 34.5,65 57,52.5 61.2,17.7 	"/>
	<polygon fill="#A6120D" points="58.6,19.7 34.4,11.4 34.4,62.1 54.6,50.9 	"/>
	<polygon fill="#DD1B16" points="10.8,19.8 14.4,51 34.4,62.1 34.4,11.4 	"/>
	<path fill="#F2F2F2" d="M41,38.4l-6.7,3.1h-7L24,49.8l-6.1,0.1l16.5-36.6L41,38.4z M40.4,36.8l-6-11.8l-4.9,11.6h4.9L40.4,36.8z"/>
	<polygon fill="#B3B3B3" points="34.4,13.3 34.4,25 40,36.6 34.4,36.6 34.4,41.5 42.1,41.5 45.7,49.9 51.6,50 	"/>
</g>
</svg>
