<?xml version="1.0" encoding="utf-8"?>
<!-- Generator: Adobe Illustrator 18.1.0, SVG Export Plug-In . SVG Version: 6.00 Build 0)  -->
<!DOCTYPE svg PUBLIC "-//W3C//DTD SVG 1.1//EN" "http://www.w3.org/Graphics/SVG/1.1/DTD/svg11.dtd">
<svg version="1.1" id="Layer_1" xmlns="http://www.w3.org/2000/svg" xmlns:xlink="http://www.w3.org/1999/xlink" x="0px" y="0px"
	 viewBox="0 0 70 70" enable-background="new 0 0 70 70" xml:space="preserve">
<circle fill="#2F5571" cx="35" cy="35.3" r="34.5"/>
<g>
	<path fill="#FFFFFF" d="M45.9,39.4c-0.2-0.2-0.4-0.2-0.6-0.3c-0.5-0.3-0.9-0.7-1.2-1.3c-0.2,0.4-0.3,0.8-0.4,1.2
		c-0.1,0.2-0.2,0.3-0.4,0.2c-1.2,0-2.4,0-3.6,0c-0.4,0-0.4-0.1-0.2-0.4c0.8-1.2,1.5-2.4,2.3-3.7c0.1-0.1,0.1-0.2,0.2-0.4
		c-0.3,0-0.6,0-0.9,0c-0.5,0-0.9,0.2-1.1,0.7c-0.1,0.2-0.1,0.4-0.4,0.3c-0.4-0.1-0.1-0.3-0.1-0.5c0.1-0.4,0.2-0.7,0.3-1.1
		c0.1-0.2,0.2-0.3,0.4-0.1c0.2,0.1,0.3,0.1,0.5,0.1c0.9,0,1.7,0,2.6,0c0.1,0,0.3-0.1,0.4,0.1c0.1,0.2,0,0.3-0.1,0.4
		c-0.7,1.2-1.4,2.4-2.2,3.6c-0.1,0.1-0.1,0.2-0.2,0.4c0.4,0,0.8,0,1.2,0c0.5,0,0.8-0.3,1-0.7c0.1-0.3,0.3-0.4,0.6-0.2
		c-0.1-0.5-0.1-1,0-1.5c0.2-1.3,1.5-2.3,2.8-2.2c0.9,0.1,1.6,0.9,1.6,1.7c0,0.3-0.1,0.5-0.4,0.5c-0.7,0-1.4,0.1-2.2,0.1
		c-0.4,0-0.5,0.1-0.4,0.5c0.2,1.2,1.4,1.7,2.5,1.1c0.1-0.1,0.2-0.3,0.4-0.1c0.1,0.2,0,0.3-0.1,0.4c-0.4,0.5-0.9,0.7-1.4,1
		C46.5,39.4,46.2,39.4,45.9,39.4z M45.4,36c0.4,0,0.7,0,1.1,0c0.6,0,0.7-0.2,0.4-0.7c-0.1-0.1-0.1-0.2-0.2-0.3
		c-0.3-0.3-0.6-0.3-0.9,0C45.6,35.2,45.5,35.6,45.4,36z"/>
	<path fill="#FFFFFF" d="M22.4,31.2c0,1.2,0,2.3,0,3.6c0.6-0.4,1.1-0.7,1.8-0.6c0.7,0.1,1.2,0.5,1.3,1.3c0.1,0.9,0,1.9,0.1,2.8
		c0,0.4,0,0.6,0.5,0.7c0.2,0,0.2,0.1,0.2,0.3c0,0.2-0.1,0.1-0.2,0.1c-0.7,0-1.5,0-2.2,0c-0.1,0-0.2,0-0.2-0.1c0-0.2,0-0.3,0.2-0.3
		c0.3,0,0.4-0.2,0.4-0.5c0-0.9,0-1.7,0-2.6c0-0.4-0.2-0.7-0.6-0.8c-0.4-0.1-0.7,0-1,0.2c-0.1,0.1-0.1,0.2-0.1,0.3c0,0.9,0,1.8,0,2.6
		c0,0.3,0,0.5,0.4,0.6c0.2,0,0.1,0.1,0.1,0.3c0,0.2-0.1,0.1-0.2,0.1c-0.8,0-1.6,0-2.3,0c-0.1,0-0.2,0-0.2-0.2c0-0.1,0-0.2,0.2-0.2
		C21,38.7,21,38.7,21,38c0-1.8,0-3.6,0-5.4c0-0.4-0.1-0.7-0.6-0.6c-0.1,0-0.2,0-0.2-0.2c0-0.2,0.1-0.2,0.2-0.2
		c0.5-0.1,1.1-0.1,1.6-0.3C22.2,31.2,22.3,31.2,22.4,31.2z"/>
	<path fill="#FFFFFF" d="M3.9,38.8c0.6,0.1,0.8-0.2,1-0.7c0.6-1.6,1.3-3.2,1.9-4.8C7,33,7.1,32.6,7.2,32.2c0.1-0.3,0.3-0.4,0.6-0.4
		c0.3,0,0.2,0.2,0.3,0.4c0.7,1.9,1.4,3.8,2.1,5.6c0.2,0.5,0.3,1,1,1c0.1,0,0.2,0.1,0.2,0.2c0,0.2-0.1,0.1-0.2,0.1
		c-0.9,0-1.8,0-2.7,0c-0.1,0-0.2,0-0.2-0.2c0-0.1,0-0.2,0.2-0.2c0.6-0.2,0.6-0.2,0.4-0.7c-0.2-0.4-0.2-1-0.5-1.2
		c-0.3-0.2-0.9-0.1-1.3-0.1c-0.6,0-0.6,0-0.8,0.6c-0.1,0.3-0.2,0.6-0.3,0.8c-0.1,0.3,0,0.6,0.4,0.6c0.2,0,0.4,0,0.3,0.3
		c0,0.3-0.2,0.1-0.4,0.2c-0.7,0-1.5,0-2.2,0C3.9,39.1,3.9,39,3.9,38.8z M8,36.2c-0.3-0.8-0.5-1.5-0.8-2.3c-0.3,0.8-0.5,1.5-0.8,2.3
		C7,36.2,7.4,36.2,8,36.2z"/>
	<path fill="#FFFFFF" d="M12.5,39.4c-0.9-0.3-1.2-1-1.1-1.8c0-0.7,0-1.5,0-2.2c0-0.3,0-0.6-0.4-0.6c-0.1,0-0.2-0.1-0.2-0.2
		c0-0.2,0.1-0.2,0.3-0.2c0.5-0.1,1.1-0.1,1.6-0.2c0.3,0,0.2,0.2,0.2,0.3c0,0.9,0,1.9,0,2.8c0,0.1,0,0.2,0,0.3c0,0.4,0.1,0.7,0.5,0.8
		c0.3,0.1,0.9-0.1,1.1-0.4c0.1-0.1,0-0.2,0-0.3c0-0.8,0-1.6,0-2.5c0-0.3-0.1-0.5-0.5-0.6c-0.1,0-0.3,0-0.3-0.2
		c0-0.2,0.2-0.2,0.3-0.2c0.6-0.1,1.1-0.1,1.7-0.2c0.3,0,0.2,0.2,0.2,0.3c0,1.1,0,2.3,0,3.4c0,0.1,0,0.2,0,0.3c0,0.3,0.1,0.5,0.4,0.5
		c0.1,0,0.3-0.1,0.3,0.2c0,0.2-0.2,0.2-0.3,0.2c-0.5,0.1-1.1,0.2-1.6,0.4c-0.1,0-0.2,0-0.3,0c0-0.2,0-0.5,0-0.8
		c-0.5,0.3-0.9,0.6-1.4,0.8C12.9,39.4,12.7,39.4,12.5,39.4z"/>
	<path fill="#FFFFFF" d="M28.5,39.4c-0.3-0.2-0.6-0.2-0.9-0.4c-0.9-0.6-1.4-1.7-1.1-2.8c0.2-1.1,1.1-1.9,2.2-2.1
		c1.5-0.2,2.8,0.6,3,2c0.3,1.9-0.8,3-2.1,3.2c0,0-0.1,0.1-0.1,0.1C29.1,39.4,28.8,39.4,28.5,39.4z M30,37c0-0.6,0-1.2-0.3-1.8
		c-0.2-0.3-0.4-0.6-0.8-0.6c-0.4,0-0.6,0.3-0.7,0.6c-0.3,0.7-0.2,1.4-0.1,2.1c0.1,0.4,0.2,0.8,0.4,1.2c0.2,0.2,0.4,0.4,0.7,0.4
		c0.3,0,0.5-0.3,0.6-0.6C30,37.9,30,37.4,30,37z"/>
	<path fill="#FFFFFF" d="M60.1,39.4C60,39.4,60,39.4,60.1,39.4c-2.2-0.5-2.5-3.4-0.9-4.7c0.9-0.8,2.2-0.8,3,0.1
		c0.1,0.1,0.2,0.3,0.3,0.5c0.3,0.8,0.1,1.1-0.7,1.1c-0.6,0-1.3,0.1-1.9,0.1c-0.2,0-0.3,0.1-0.3,0.4c0.1,1.2,1.3,1.8,2.4,1.3
		c0.1-0.1,0.3-0.3,0.5-0.1c0.2,0.2-0.1,0.4-0.2,0.5c-0.4,0.5-0.9,0.7-1.4,0.9C60.6,39.4,60.3,39.4,60.1,39.4z M59.6,36
		c0,0,0.1,0,0.1,0c0.4,0,0.8,0,1.2,0c0.3,0,0.4-0.2,0.3-0.4c-0.1-0.2-0.1-0.4-0.3-0.6c-0.3-0.4-0.6-0.4-0.9,0
		C59.7,35.2,59.6,35.6,59.6,36z"/>
	<path fill="#FFFFFF" d="M64.2,39.4c-0.8-0.3-0.9-1-0.9-1.7c0-0.8,0-1.6,0-2.5c0-0.3,0-0.4-0.3-0.4c-0.1,0-0.4,0.1-0.4-0.1
		c0-0.2,0.2-0.5,0.5-0.5c0.3,0,0.3-0.1,0.3-0.4c0-0.3,0.1-0.4,0.3-0.5c0.3-0.2,0.5-0.4,0.8-0.6c0.2-0.2,0.4-0.1,0.4,0.2
		c0,0.3,0,0.6,0,0.9c0,0.3,0.1,0.4,0.4,0.4c0.2,0,0.3,0,0.5,0c0.2,0,0.3,0.1,0.3,0.3c0,0.2,0,0.4-0.3,0.4c-0.1,0-0.2,0-0.3,0
		c-0.7,0-0.6-0.1-0.6,0.6c0,0.7,0,1.3,0,2c0,0.2,0,0.4,0.1,0.6c0.1,0.5,0.4,0.6,0.9,0.5c0.1,0,0.3-0.2,0.4,0.1
		c0.1,0.3-0.1,0.3-0.2,0.3c-0.3,0.2-0.7,0.3-1,0.5C64.6,39.4,64.4,39.4,64.2,39.4z"/>
	<path fill="#FFFFFF" d="M18.2,39.4c-0.8-0.3-0.9-1-0.9-1.7c0-0.8,0-1.7,0-2.5c0-0.3-0.1-0.3-0.3-0.3c-0.1,0-0.4,0.1-0.4-0.1
		c0-0.2,0.2-0.5,0.4-0.5c0.3,0,0.4-0.2,0.3-0.4c0-0.2,0.1-0.3,0.2-0.4c0.3-0.2,0.6-0.4,0.8-0.6c0.2-0.2,0.4-0.1,0.4,0.2
		c0,0.1,0,0.2,0,0.3c0,0.3-0.1,0.7,0,0.9c0.2,0.2,0.6,0.1,0.9,0.1c0.2,0,0.3,0.1,0.3,0.3c0,0.2-0.1,0.4-0.3,0.4c-0.2,0-0.4,0-0.6,0
		c-0.2,0-0.3,0-0.3,0.3c0,0.8,0,1.6,0,2.4c0,0.1,0,0.3,0.1,0.4c0.1,0.6,0.4,0.7,0.9,0.5c0.1,0,0.2-0.1,0.3,0.1
		c0.1,0.2,0,0.3-0.1,0.3c-0.4,0.2-0.7,0.4-1.1,0.5C18.6,39.4,18.4,39.4,18.2,39.4z"/>
	<path fill="#FFFFFF" d="M49.3,39.4c-0.3-0.2-0.6-0.5-0.6-1c0-0.5,0.3-0.8,0.8-0.9c0.4-0.1,0.8,0.2,1,0.7c0.1,0.4-0.1,0.9-0.5,1.1
		c-0.1,0-0.2,0-0.2,0.1C49.6,39.4,49.5,39.4,49.3,39.4z"/>
	<path fill="#FFFFFF" d="M57.2,36.8c0.1-1.3,0-2.6-0.1-3.8c-0.1-0.5-0.2-0.6-0.7-0.7c-0.1,0-0.1,0-0.2,0c-0.1,0-0.2-0.1-0.2-0.2
		c0-0.2,0.1-0.2,0.2-0.2c0.8,0,1.6,0,2.5,0c0.1,0,0.2,0,0.2,0.2c0,0.1,0,0.2-0.2,0.2c-0.7,0.2-0.7,0.3-0.8,1
		c-0.1,1.9-0.1,3.7-0.1,5.6c0,0.2,0.1,0.4-0.1,0.5c-0.2,0-0.5,0.1-0.8-0.2c-1.1-1.4-2.2-2.7-3.3-4.1c-0.3-0.4-0.6-0.8-0.9-1.1
		c-0.1,0.1-0.1,0.2-0.1,0.4c0,1.3-0.1,2.5,0.1,3.8c0.1,0.6,0.2,0.7,0.8,0.8c0.1,0,0.4-0.1,0.4,0.2c0,0.3-0.2,0.2-0.4,0.2
		c-0.7,0-1.4,0-2.1,0c-0.1,0-0.3,0.1-0.3-0.2c0-0.2,0.1-0.2,0.3-0.2c0.4,0,0.6-0.3,0.6-0.7c0.2-1.7,0.1-3.3,0.1-5
		c0-0.5-0.3-0.8-0.8-0.9c-0.2,0-0.4,0-0.3-0.3c0-0.3,0.3-0.2,0.4-0.2c0.6,0,1.2-0.1,1.6,0.1c0.4,0.2,0.7,0.8,1.1,1.2
		C55,34.4,56,35.7,57.2,36.8C57.1,36.9,57.1,36.9,57.2,36.8C57.2,36.9,57.2,36.9,57.2,36.8z"/>
	<path fill="#FFFFFF" d="M34.2,35c0.2-0.3,0.4-0.5,0.7-0.7c0.3-0.2,0.8-0.2,1.1,0.1c0.3,0.3,0.2,0.7-0.1,1.1
		c-0.2,0.2-0.5,0.3-0.8,0.1c-0.6-0.4-1-0.1-1.1,0.6c0,0.7,0,1.4,0,2.1c0,0.4,0.2,0.6,0.6,0.6c0.1,0,0.4,0,0.4,0.2
		c0,0.3-0.2,0.2-0.4,0.2c-0.8,0-1.6,0-2.5,0c-0.1,0-0.3,0.1-0.3-0.2c0-0.2,0.1-0.2,0.3-0.2c0.4,0,0.5-0.2,0.5-0.6c0-0.9,0-1.9,0-2.8
		c0-0.4-0.1-0.6-0.5-0.5c-0.1,0-0.2,0-0.2-0.2c0-0.2,0.1-0.2,0.3-0.2c0.5-0.1,1-0.2,1.6-0.3c0.3-0.1,0.4,0,0.4,0.3
		c0,0.2,0,0.3,0,0.5c0,0,0,0.1,0,0.1C34.1,35.1,34.2,35.1,34.2,35z"/>
	<path fill="#FFFFFF" d="M38.4,36.3c0,0.6,0,1.2,0,1.8c0,0.4,0,0.8,0.6,0.8c0.2,0,0.2,0.1,0.2,0.3c0,0.2-0.1,0.1-0.2,0.1
		c-0.8,0-1.7,0-2.5,0c-0.1,0-0.2,0-0.2-0.2c0-0.1,0-0.2,0.2-0.2c0.5,0,0.6-0.3,0.6-0.7c0-0.9,0-1.8,0-2.8c0-0.3-0.1-0.5-0.5-0.5
		c-0.1,0-0.3,0-0.3-0.2c0-0.2,0.2-0.2,0.3-0.2c0.5-0.1,1-0.1,1.5-0.3c0.4-0.1,0.4,0,0.4,0.3C38.4,35.1,38.4,35.7,38.4,36.3z"/>
	<path fill="#FFFFFF" d="M37.6,31.5c0.5,0,0.8,0.4,0.8,0.9c0,0.5-0.4,0.8-0.9,0.8c-0.4,0-0.9-0.4-0.8-0.9
		C36.7,31.9,37.2,31.5,37.6,31.5z"/>
	<path fill="#FFFFFF" d="M34.2,35c0,0.1-0.1,0.1-0.1,0.1c0,0,0-0.1,0-0.1C34.1,35,34.1,35,34.2,35z"/>
	<path fill="#FFFFFF" d="M57.2,36.8C57.2,36.9,57.2,36.9,57.2,36.8C57.1,36.9,57.1,36.9,57.2,36.8C57.1,36.8,57.1,36.8,57.2,36.8z"
		/>
</g>
</svg>
