<?xml version="1.0" encoding="utf-8"?>
<!-- Generator: Adobe Illustrator 18.1.0, SVG Export Plug-In . SVG Version: 6.00 Build 0)  -->
<!DOCTYPE svg PUBLIC "-//W3C//DTD SVG 1.1//EN" "http://www.w3.org/Graphics/SVG/1.1/DTD/svg11.dtd">
<svg version="1.1" id="Layer_1" xmlns="http://www.w3.org/2000/svg" xmlns:xlink="http://www.w3.org/1999/xlink" x="0px" y="0px"
	 viewBox="0 0 70 70" enable-background="new 0 0 70 70" xml:space="preserve">
<circle fill="#FF6600" cx="35" cy="35.3" r="34.5"/>
<g>
	<path fill="#FEFEFE" d="M35,54.8c0.1-0.2,0.2-0.3,0.2-0.4c1.2-2.2,2.5-4.4,3.8-6.6c3.9-6.4,8.6-12.3,14.1-17.4
		c0.1-0.1,0.1-0.1,0-0.2c-0.4-0.8-0.7-1.7-1.1-2.5c-0.1-0.2-0.1-0.2-0.2-0.1c-2.8,2.1-5.4,4.3-7.8,6.7c-3.2,3.1-6.2,6.4-8.9,9.9
		c-0.1,0.2-0.1,0.2-0.3,0c-1.2-1.5-2.4-3-3.7-4.4c-0.1-0.1-0.1-0.2-0.2-0.2c0,0,0,0.1,0,0.1c-0.7,1.6-1.4,3.2-2,4.8
		c0,0.1,0,0.1,0,0.2c0.2,0.4,0.5,0.7,0.7,1.1c1.7,2.7,3.3,5.4,4.9,8.2C34.7,54.3,34.9,54.5,35,54.8z"/>
	<path fill="#FFFFFF" d="M38.8,7c0.9,2.2,1.8,4.4,2.7,6.6c1.7,4.1,3.4,8.1,5.1,12.2c0,0.1,0,0.2-0.1,0.2c-2.1,1.7-4.2,3.6-6.1,5.5
		c-0.1,0.1-0.1,0.1-0.2,0c-1.4-3.4-2.9-6.8-4.3-10.2c-0.3-0.6-0.5-1.2-0.7-1.8c0-0.1-0.1-0.1-0.2-0.1c-0.1,0-0.2-0.1-0.3,0.1
		c-1,2.8-2.3,5.6-3.5,8.4c-2.6,6.1-5.2,12.2-7.7,18.3c-1.4,3.4-2.9,6.8-4.3,10.2c0,0.1-0.1,0.1,0,0.2c-2.8,0-5.6,0-8.5,0
		c0,0-0.1,0-0.1,0c0,0,0-0.1,0.1-0.1c0.7-1.6,1.4-3.2,2-4.9c3.3-7.8,6.5-15.6,9.8-23.4c2.1-5.1,4.2-10.1,6.3-15.2
		c0.8-1.9,1.6-3.8,2.4-5.7C33.8,7,36.3,7,38.8,7z"/>
	<path fill="#FFFFFF" d="M50.8,56.3c0-0.1-0.1-0.2-0.1-0.3c-1.5-3.6-3.1-7.2-4.6-10.8c0-0.1,0-0.2,0-0.3c1.8-2.3,3.6-4.6,5.6-6.7
		c0,0,0,0,0.1-0.1c0.1,0,0.1,0.1,0.1,0.2c2.5,5.9,5,11.9,7.4,17.8c0,0,0,0.1,0.1,0.1c0,0.1-0.1,0-0.1,0
		C56.5,56.3,53.6,56.3,50.8,56.3z"/>
	<path fill="#FFFFFF" d="M35,54.8c-0.2-0.3-0.3-0.6-0.5-0.9c-1.5-2.8-3.1-5.5-4.9-8.2c-0.2-0.4-0.5-0.7-0.7-1.1c0-0.1-0.1-0.1,0-0.2
		c0.7-1.6,1.4-3.2,2-4.8c0,0,0,0,0-0.1c0.1,0.1,0.1,0.2,0.2,0.2c1.3,1.4,2.5,2.9,3.7,4.4c0.1,0.2,0.1,0.2,0.3,0
		c2.8-3.5,5.7-6.8,8.9-9.9c2.5-2.4,5.1-4.7,7.8-6.7c0.2-0.1,0.2-0.1,0.2,0.1c0.4,0.8,0.7,1.7,1.1,2.5c0,0.1,0,0.2,0,0.2
		c-5.5,5.2-10.2,11-14.1,17.4c-1.3,2.2-2.5,4.4-3.8,6.6C35.2,54.6,35.1,54.7,35,54.8z"/>
</g>
</svg>
