<?xml version="1.0" encoding="utf-8"?>
<!-- Generator: Adobe Illustrator 18.1.0, SVG Export Plug-In . SVG Version: 6.00 Build 0)  -->
<!DOCTYPE svg PUBLIC "-//W3C//DTD SVG 1.1//EN" "http://www.w3.org/Graphics/SVG/1.1/DTD/svg11.dtd">
<svg version="1.1" id="Layer_1" xmlns="http://www.w3.org/2000/svg" xmlns:xlink="http://www.w3.org/1999/xlink" x="0px" y="0px"
	 viewBox="0 0 70 70" enable-background="new 0 0 70 70" xml:space="preserve">
<circle fill="#2C70B4" cx="35" cy="35.3" r="34.5"/>
<g>
	<g>
		<path fill="#FFFFFF" d="M31.5,24.7c-0.9-1.2-2-2.1-3.3-2.8c-1.3-0.7-2.8-1-4.5-1c-1.6,0-3.1,0.3-4.4,1c-1.4,0.6-2.5,1.5-3.5,2.7
			c-1,1.2-1.8,2.5-2.4,4.1c-0.6,1.6-0.9,3.4-0.9,5.3c0,2,0.3,3.8,0.8,5.4c0.6,1.6,1.3,3,2.4,4.1c1,1.1,2.2,2,3.7,2.6
			c1.4,0.6,3.1,0.9,4.9,0.9c1.7,0,3.3-0.4,5-1c1.6-0.7,3-1.7,4-3L28.6,39c-0.5,0.5-1.1,1-1.8,1.3c-0.7,0.3-1.6,0.5-2.5,0.5
			c-0.6,0-1.2-0.1-1.8-0.3C22,40.3,21.4,40,21,39.7c-0.5-0.4-0.9-0.9-1.2-1.5c-0.3-0.6-0.5-1.3-0.6-2.2h15c0-0.3,0.1-0.5,0.1-0.9
			c0-0.3,0-0.7,0-1.2c0-1.8-0.2-3.5-0.7-5.1C33.1,27.3,32.4,25.9,31.5,24.7z M19.3,31.1c0.1-1.3,0.5-2.3,1.2-3.2
			c0.7-0.9,1.7-1.3,2.9-1.3c0.7,0,1.4,0.1,1.9,0.4c0.5,0.3,1,0.6,1.4,1c0.4,0.4,0.6,0.9,0.8,1.4c0.2,0.5,0.3,1.1,0.4,1.6H19.3z
			 M56.7,28.2c-0.5-1.7-1.2-3.1-2.1-4.2c-0.9-1.1-1.9-1.9-3.1-2.4c-1.2-0.5-2.4-0.8-3.8-0.8c-1.2,0-2.2,0.2-3.1,0.6
			c-0.8,0.4-1.6,0.9-2.2,1.5l0-1.6h-6.6v34.2l6.6-0.1V45c0.6,0.5,1.4,1,2.3,1.4c0.9,0.4,1.9,0.6,3,0.6c1.6,0,2.9-0.3,4.1-0.9
			c1.2-0.6,2.2-1.5,3-2.6c0.8-1.1,1.4-2.5,1.9-4c0.4-1.6,0.6-3.3,0.6-5.2C57.4,31.9,57.2,29.9,56.7,28.2z M46.9,40.8
			c-1.9,0-3.4-0.7-4.4-2.1v-9.4c0.5-0.6,1-1.1,1.6-1.5c0.6-0.4,1.4-0.6,2.4-0.6c1.3,0,2.3,0.6,3.1,1.7c0.8,1.1,1.2,3,1.2,5.6
			C50.8,38.6,49.5,40.8,46.9,40.8z"/>
	</g>
</g>
</svg>
