<?xml version="1.0" encoding="utf-8"?>
<!-- Generator: Adobe Illustrator 18.1.0, SVG Export Plug-In . SVG Version: 6.00 Build 0)  -->
<!DOCTYPE svg PUBLIC "-//W3C//DTD SVG 1.1//EN" "http://www.w3.org/Graphics/SVG/1.1/DTD/svg11.dtd">
<svg version="1.1" id="Layer_1" xmlns="http://www.w3.org/2000/svg" xmlns:xlink="http://www.w3.org/1999/xlink" x="0px" y="0px"
	 viewBox="0 0 70 70" enable-background="new 0 0 70 70" xml:space="preserve">
<circle fill="#6DC5DC" cx="35" cy="35.3" r="34.5"/>
<g>
	<path fill="#684C46" d="M58.6,46.3c0,0.1-4,15.2-19.3,15.2c-13.3,0-19.6-11.6-19.6-11.6c-1,0.1-1.9-0.1-2.8-0.4
		c-3.9-1.4-5.8-5.9-4.4-9.6l-2.1-1.6C2,31.9,25.6,2.9,33.9,9.5c0,0,2,1.6,2,1.6c3-1.8,5.9-2.8,8.4-2.8c1.7,0,3.1,0.5,4.1,1.5
		c2.2,2.3,1.4,6.8-1.6,11.3c0.6,0.6,1.2,1.4,1.5,2.2c0.9,0.7,1.5,1.8,1.8,3.3c0.3,1.7,0.4,4.1,0.6,5.1c0.8,0.4,0.5,0.2,1.3,0.6
		c0.9,0.4,2,1,3.2,2.1c2.1,0.5,2.9,2.8,1.7,4.3c0,0-0.2,0.2-0.3,0.4c0,0.1,0.4,0.8,0.7,2.1c0.9,0.2,1.6,0.7,1.9,1.5
		C59.9,44.4,58.6,46.3,58.6,46.3z"/>
	<path fill="#F5DCBA" d="M22.8,40.6L22.8,40.6L22.8,40.6c0.3-0.9,0.5-1.6,0.5-1.6c0.4,1.2,0.6,2.4,0.5,3.7l0,0l0,0
		c0.3-0.4,0.7-1.2,0.7-1.2c0.6,3.5-1.9,6.7-5.3,6.7c-3,0-5.4-2.5-5.4-5.7c0-3.1,2.4-5.7,5.4-5.7c0.8,0,1.5,0.2,2.2,0.5
		C21.4,37.3,22.5,37.9,22.8,40.6z M52.1,52.9c4.2-3.3,4.9-7.2,5-7.4c1-1.2,0.7-2.4-0.6-2.4c-0.4,0-0.8,0.1-0.8,0.1s0-1.8-0.8-3.2
		c-0.6,0.7-2.4,2.1-4.8,3.3c-2.2,1-5.1,1.9-8.7,2.1h0c-1,0-1.6-0.1-2,1.1c-0.1,0.4-0.1,1,0,1.2c0.3,1,1,1.4,2,1.6
		c0.7,0.2,1.5,0.2,1.5,0.2c7.3,0.2,13.2-5.5,13.3-5.6c0.1-0.1,0.1-0.1,0.1-0.1s-0.1,0.2-0.1,0.2c-1.1,2.4-7.2,6.7-13.3,6.6l0,0
		c-1.4,0-3.1-0.4-4-1.5c-1.4-1.8-0.7-4.7,1.6-4.7c0,0,0.5,0,0.8,0c5.6-0.2,10.6-2.2,14.2-6.5c0.5-0.6-0.1-1.5-1.1-1.5c0,0,0,0,0,0
		c-1.3-1.4-2.4-1.8-3.4-2.3c-2.1-1.1-1.9-0.1-2.4-5.3c-0.1-1.4-0.4-3.3-1.6-4c-0.3-0.2-0.7-0.3-1-0.3c-0.4,0-0.5,0.1-0.6,0.1
		c-0.7,0.1-1,0.5-1.5,1c-2.2,2.1-4,1.5-6.7,1.5c-2.5,0-4.7,1.7-5.2,4.4l0,0c-0.2,1.4-0.1,2.8,0.1,3.5c0,0-0.7-0.5-1-0.9
		c0.4,2.5,2.6,4.1,2.6,4.1c-0.4,0.1-0.9,0-0.9,0c0,0,1.3,1,2.4,1.4c-0.3,0.2-1.8,1.6-2.5,3.6c-0.7,1.9-0.4,4.1-0.4,4.1l0.6-0.9
		c0,0-0.4,2,0.4,4c0.3-0.6,0.8-1.6,0.8-1.6s-0.1,2.2,1,4c0-0.4,0.2-1.5,0.2-1.5s0.6,1.9,2,3.2C39.9,56.6,46.8,57,52.1,52.9z"/>
	<path fill="#0788BF" d="M13.3,38.2c0,0-2-1.5-2.3-2c-1.7-2.8,1.2-8.7,3.3-12C19.5,16.1,28.1,9.6,32,10.5l4,2.1
		c-1.6,0.9-3.1,2-4,2.8l-0.9,0.7c0,0-2.5,1.7-3.7,2.7c-5,4.2-9.8,10.8-11.7,17.1C15.8,35.9,14.3,36.7,13.3,38.2z"/>
	<path fill="#46B8E3" d="M32,10.5L32,10.5c-3.9-0.9-12.5,5.6-17.6,13.8c0,0,0,0,0,0l0,0l4.1,3.2c4.5-7.2,10.2-10.9,10.3-11l-0.7-4.4
		l1.2-0.6l2.4,0.8l-0.2-0.8L32,10.5L32,10.5z"/>
	<path fill="#FFD14F" d="M36,12.6l-4,2.8l-0.3,0.2l-3.5-2.9l-0.1-0.5l1.2-0.6c0.1,0,2.4,0.8,2.4,0.8l0-1.5l0.1-0.3l1.1-0.4
		C33,10.1,36,12.6,36,12.6z"/>
	<g>
		<path fill="#122030" d="M43.8,9.9c-2.6,0-5.6,1.4-7.8,2.7c-0.3,0.2-0.6,0.4-0.9,0.6l-1.2-1l0.4,1.5c-0.2,0.1-0.3,0.2-0.5,0.3
			l-2.4-0.7l1.6,1.4c-0.4,0.3-0.7,0.5-1,0.8l-3.9-3.2l0.2,1.4l2.8,2.5c0,0-2.5,1.7-3.7,2.7c-5,4.2-9.8,10.8-11.7,17.1l0.1-0.1
			c0,0,0,0,0,0c0.1,0,0.1-0.1,0.2-0.1c0,0,0.1,0,0.1,0c0.1,0,0.1,0,0.2-0.1c0,0,0.1,0,0.1,0c0.1,0,0.1,0,0.2-0.1c0,0,0.1,0,0.1,0
			c0.1,0,0.2-0.1,0.2-0.1c1.2-0.4,2.9-0.6,4.9,0.2c1-2.5,2.2-5,4-7.4c1.5-2,2.9-3.7,4.7-4.7c3.3-3.1,12.1-6.4,15-3.5
			c0.7-1.1,1.3-2.1,1.7-3.4C48.4,13.4,48.4,9.9,43.8,9.9z"/>
		<polygon fill="#122030" points="32.5,12.6 32,10.5 31.6,11.6 31.8,12.4 		"/>
	</g>
	<path fill="#FFFFFF" d="M55.7,43.2c0,0,0-1.8-0.8-3.2c-0.6,0.7-2.4,2.1-4.8,3.3c-2.2,1-5.1,1.9-8.7,2.1h0c-1,0-1.6-0.1-2,1.1
		c0,0.1,0,0.2-0.1,0.3l0,0c0,0,0,0,0,0c0,0,0,0.1,0,0.1c0,0.1,0,0.2,0,0.3c0,0,0,0,0,0c0,0,0,0,0,0c0,0.1,0,0.1,0,0.1c0,0,0,0,0,0
		c0,0,0,0,0,0c0,0.2,0.1,0.3,0.1,0.3c0,0,0,0,0,0l0,0c0.3,1,1,1.4,2,1.6c0.7,0.2,1.5,0.2,1.5,0.2c6,0.2,11-3.6,12.7-5
		C55.7,44,55.7,43.7,55.7,43.2z M38.5,11.2c1.4-0.7,3-1.2,4.4-1.3c-1.5,0.3-3.2,1.1-5.3,2.4c-0.1,0-5,3.4-8,6.4
		c-1.6,1.6-8.2,9.5-8.2,9.5c1.2-2.3,2-3.4,3.9-5.8c1.1-1.4,2.2-2.7,3.4-3.9c0.4-0.4,0.8-0.8,1.2-1.2l0,0l0,0
		C30,17.1,33.5,13.6,38.5,11.2z"/>
	<path fill="#EABE8D" d="M52.1,52.9c-0.7,0.6-1.5,1-2.2,1.4c-1.8-0.7-2.8-2.1-2.8-2.1s1.5-0.4,3.5-1.4c2.5-1.2,4.8-3.1,6.5-5.3
		C57,45.7,56.3,49.6,52.1,52.9z M47.3,33.9c-0.9-0.6-2.3-0.1-2.6,0.9c0.5,0,1,0.4,1,0.9c0.3-0.3,0.8-0.5,1.3-0.5
		C46.8,34.7,46.9,34.1,47.3,33.9z M38.4,46.1c0.3-1,1-1.8,2.2-1.8c0,0,0.5,0,0.8,0c5.6-0.2,10.6-2.2,14.2-6.5
		c0.5-0.6-0.1-1.5-1.1-1.5c0,0,0,0,0,0c-0.2,0.2-0.2,0.5-0.5,1.1c-1.1,1.9-2.6,2.8-4.6,3.8c-6.2,3.1-9.4,1.6-10.7,3.5
		C38.2,45.2,38.2,45.8,38.4,46.1C38.4,46.1,38.4,46.1,38.4,46.1z M49.5,33.2c-0.6-0.4-0.6-1.2-0.9-4.6c-0.1-1.1-0.3-2.5-1-3.4
		C47.5,25.1,47.3,25,47,25c-0.4,0-0.9,0.4-1.2,0.7c-0.8,1.1-1.5,1.8-2.8,2.4c-1.3,0.6-2.6,0.8-3.9,0.8c-0.9,0-1.8-0.2-2.6-0.2
		c-1.5,0-2.8,0.5-3.8,1.7c-0.7,0.8-0.9,1.7-1,2.7c0,0.1,0,0.2,0,0.4c0,0.2,0,0.3,0,0.5c0.1,0.5,0.2,0.8,0.2,0.8c0,0,0,0,0,0
		c0,0,0,0.1,0,0.1c0,0-0.7-0.5-1-0.9c0.3,2.1,1.9,3.5,2.5,3.9c0,0,0.1,0,0.1,0.1c0,0,0,0,0,0c0,0,0.1,0.1,0.1,0.1
		c-0.4,0.1-0.9,0-0.9,0c0,0,1.3,1,2.4,1.4c1.5-1.2,3.1-1.7,4.5-1.9c0.8-0.5,1.7-1,2.7-1.5c-0.3-1.8,1.3-3.6,3.3-3.8
		c1.5-0.1,2.3,0.6,2.8,1.3C48.9,33.5,49.2,33.4,49.5,33.2C49.6,33.3,49.5,33.2,49.5,33.2z M50.3,45.4C50.2,45.4,50.2,45.4,50.3,45.4
		c-0.7,0.2-6.9,2.6-10.9,1.3c0,0.2,0,0.7,0.1,0.9c0,0,0,0,0,0c0.6,0.1,1.4,0.2,2.2,0.2C46.9,47.8,50.6,45.4,50.3,45.4z M21.1,44.9
		C21.1,44.9,21.1,44.9,21.1,44.9c0.3-0.3,0.5-0.8,0.4-1.3c-0.1-0.7-0.9-0.8-1.4-1.3c0,0,0,0,0,0c0,0,0,0,0,0c0,0,0,0,0,0
		c-0.2-0.3-0.3-0.5-0.3-0.8c0-0.7,0.6-0.9,0.9-0.7c0,0,0.4,0.1,0.7,0.5c0,0,0,0,0,0c0-0.1,0-0.3-0.3-0.7c-0.4-0.5-1.2-1-2.4-0.8h0
		c-0.2,0-0.1,0-0.3,0.1c0,0-0.1,0-0.1,0c-0.1,0-0.1,0.1-0.2,0.1l0,0c0,0-0.2,0.1-0.4,0.3C16.3,42,18.6,45.1,21.1,44.9z"/>
	<path fill="#9C7356" d="M40.8,34.3c0.1,0.2,0.1,0.3,0.1,0.3c-0.1,0.1-0.4,0-0.9-0.2c-1.2-0.5-2.1-0.5-3.7,0.1
		c-0.4,0.2-0.7,0.3-0.8,0.3c-0.2,0,0-0.4,0.5-0.8c1-0.8,2.3-1,3.5-0.6C39.9,33.5,40.5,33.8,40.8,34.3z M40.6,35.5
		c-0.3-0.3-1-0.4-1.6-0.3c-0.1,0-0.3,0.1-0.4,0.1c0,0-0.1,0-0.1,0c-0.3,0.1-0.5,0.2-0.7,0.4c-0.3,0.2-0.3,0.5-0.3,0.5
		c0.1,0.1,0.3,0,0.5-0.1c0.9-0.4,1.6-0.4,2.2-0.3c0.3,0,0.5,0,0.5,0C40.8,35.8,40.7,35.7,40.6,35.5z M20.7,40.3L20.7,40.3L20.7,40.3
		c0.2,0.1,0.3,0.2,0.4,0.4c0.3,0.4,0.2,0.6,0.3,0.7c0,0,0.1,0.1,0.2,0c0.2-0.1,0.2-0.3,0.3-0.5l0,0l0,0l0,0c0-0.4-0.2-0.9-0.5-1.3
		l0,0l0,0l0,0c-0.2-0.2-0.4-0.4-0.7-0.6c-0.3-0.2-0.6-0.3-1-0.3c-0.6-0.1-1.3,0-1.4,0.1l0,0c-0.1,0-0.2,0-0.3,0.1
		c-1,0.4-1.7,1.1-2,2.1l0,0l0,0c-0.1,0.4-0.2,0.7-0.2,1.1c0,0.3,0,0.6,0.1,0.8v0l0,0l0,0c0.1,0.4,0.3,0.9,0.5,1.1l0,0l0,0l0,0
		c0.3,0.4,0.7,0.3,0.6,0c0-0.1-0.3-0.5-0.3-1.2c0-0.5,0-1,0.2-1.4c0.1-0.2,0.2-0.5,0.4-0.7c0.4-0.4,0.8-0.6,0.8-0.7l0,0
		c0.1,0,0.1-0.1,0.2-0.1c0,0,0.1,0,0.1,0c0.2-0.1,0.1,0,0.3-0.1h0C19.5,39.7,20.2,39.9,20.7,40.3z M20.6,41.9
		c-0.1-0.1-0.2-0.2-0.2-0.3c0-0.2,0-0.3,0.2-0.5c0.1-0.1,0.3-0.1,0.3-0.2c0-0.1-0.5-0.2-0.8,0.1c-0.3,0.3-0.4,0.9,0.1,1.4
		c0.5,0.5,1.3,0.7,1.4,1.3c0,0.1,0,0.2,0,0.3c0,0.1,0,0.3,0,0.3c-0.1,0.6-0.8,1.3-1.8,1.1c-0.2,0-0.3,0-0.3,0
		c-0.1,0.1,0.4,0.6,1.1,0.6c0.8,0,1.5-0.6,1.8-1.5c0,0,0.1-0.3,0.1-0.5c0-0.2,0-0.3,0-0.5C22.1,42.4,21,42.2,20.6,41.9z M47.6,33.9
		c-0.3,0-0.6,0.3-0.7,0.7c-0.1,0.4,0.1,0.8,0.4,0.8c0.3,0,0.6-0.3,0.7-0.7C48.1,34.3,47.9,33.9,47.6,33.9z M44.2,35.1
		c-0.2,0.3,0,0.7,0.5,1c0.4,0.2,0.9,0.2,1.1-0.1c0.2-0.3,0-0.7-0.5-1C44.8,34.7,44.4,34.8,44.2,35.1z M31.9,22.7
		c5.8-3.8,11.6-4.2,13.6-2.7c0,0,0,0,0,0c0,0,0-0.1,0-0.1l0,0c-0.5-1.1-1.7-1.8-2.7-2.1c0.2,0.2,0.4,0.5,0.6,0.7
		c-0.8-0.5-1.8-1-2.9-1.2c0,0,0.1,0.1,0.2,0.1c0.2,0.2,0.5,0.5,0.6,0.8c-1-0.4-2.4-0.7-3.5-0.4c0,0-0.1,0-0.1,0s0.1,0,0.2,0
		c0.4,0.1,0.9,0.3,1.1,0.7c-1.9-0.3-3.9,0-5.1,0.7c0.1,0,0.1,0,0.3,0c0.4,0,1.2,0.1,1.6,0.3c-1.2,0.2-2.9,0.8-3.8,1.6
		c0.2,0,1.1-0.1,1.5-0.1c-5.1,2.9-7.4,7.3-7.4,7.3l0,0C27.3,26.3,29.2,24.4,31.9,22.7z"/>
	<path fill="#684C46" d="M45.5,30.9c0-0.4,0.1-1.1,0.4-1.2l0,0c0,0,0,0,0,0l0,0c0.6-0.2,1.5,1.4,1.5,2.9c-0.5-0.3-1.1-0.4-1.7-0.3
		C45.6,31.8,45.6,31.4,45.5,30.9z"/>
</g>
</svg>
