<?xml version="1.0" encoding="utf-8"?>
<!-- Generator: Adobe Illustrator 20.0.0, SVG Export Plug-In . SVG Version: 6.00 Build 0)  -->
<svg version="1.1" id="Layer_1" xmlns="http://www.w3.org/2000/svg" xmlns:xlink="http://www.w3.org/1999/xlink" x="0px" y="0px"
	 viewBox="0 0 638.9 129.6" style="enable-background:new 0 0 638.9 129.6;" xml:space="preserve">
<style type="text/css">
	.st0{fill:#FFFFFF;}
</style>
<g>
	<g>
		<path class="st0" d="M145.4,31.9C139.1,16.2,125.3,7,106.4,7C93.6,7,83.1,11,75.6,18.8c0,0,0,0,0,0c-4,4.2-7,9.4-9.1,15.8
			c-2.3,6.7-3,12.2-3.1,26.6l0,0c0,1.2,0,2.4,0,3.7c0,14.7-0.5,20.1-1.8,24c-2.5,7.7-8.4,12.3-17.6,12.3s-15.1-4.6-17.6-12.3
			c-1.3-4-1.8-9.4-1.8-24s0.5-20.1,1.8-24C28.8,33,34.7,28.4,44,28.4c4.3,0,7.8,1,10.7,2.9c0.1-0.2,0.1-0.4,0.2-0.7
			c2.4-7.4,6.1-13.8,10.7-19C59.3,8.5,52,7,44,7C24.4,7,8.9,16.1,3.1,34.2C0.7,41.9,0,48.2,0,64.8s0.7,22.9,3.1,30.6
			c5.8,18.1,21.2,27.2,40.8,27.2c12.9,0,23.9-3.9,31.7-11.7c0,0,0,0,0,0c4-4.1,7.2-9.2,9.1-15.4c2.3-7.2,3-13.1,3.1-27.4l0,0
			c0-1,0-2.1,0-3.2c0-16,0.5-19.9,1.8-24c2.5-7.7,8.1-12.3,16.8-12.3c9.4,0,14.7,5.4,17.8,12.7c0.5,1,1.3,1.3,2.3,0.8l17.9-8.1
			C145.5,33.5,145.9,32.7,145.4,31.9z"/>
		<path class="st0" d="M144.6,95.7l-17.9-8.1c-1-0.5-1.8-0.2-2.3,0.8c-3.1,7.2-8.4,12.7-17.8,12.7c-3.9,0-7.2-1-9.8-2.7
			c-0.1,0.2-0.1,0.4-0.2,0.7c-2.3,7.4-6.1,13.7-10.9,19c5.9,2.9,12.9,4.5,20.8,4.5c18.9,0,32.8-9.2,39-24.9
			C145.9,96.9,145.5,96.1,144.6,95.7z"/>
	</g>
	<g>
		<polyline class="st0" points="186.6,0 186.6,129.6 191,129.6 191,0 		"/>
	</g>
	<g>
		<g>
			<g>
				<path class="st0" d="M232.8,38.2c-0.6-2-0.8-3.6-0.8-7.8c0-4.2,0.2-5.8,0.8-7.8c1.5-4.6,5.4-6.9,10.4-6.9c5,0,8.9,2.3,10.4,6.9
					c0.6,2,0.8,3.6,0.8,7.8c0,4.2-0.2,5.8-0.8,7.8c-1.5,4.6-5.4,6.9-10.4,6.9C238.2,45.1,234.3,42.8,232.8,38.2 M247.7,36.5
					c0.3-1,0.5-2.4,0.5-6.1c0-3.7-0.1-5.1-0.5-6.1c-0.6-2-2.1-3.1-4.5-3.1c-2.3,0-3.8,1.2-4.5,3.1c-0.3,1-0.5,2.4-0.5,6.1
					c0,3.7,0.1,5.1,0.5,6.1c0.6,2,2.1,3.1,4.5,3.1C245.5,39.6,247.1,38.5,247.7,36.5"/>
				<path class="st0" d="M259.4,44.6c-0.2,0-0.4-0.2-0.4-0.4V24.8c0-0.2,0.2-0.4,0.4-0.4h5c0.2,0,0.4,0.2,0.4,0.4v1.7h0
					c1-1.6,2.8-2.6,5.3-2.6c1.3,0,2.7,0.5,3.6,1.2c0.2,0.2,0.3,0.3,0.1,0.6l-2.3,4.3c-0.2,0.2-0.3,0.2-0.6,0.1c-1-0.6-1.9-1-2.9-0.9
					c-2.2,0.1-3.1,1.7-3.1,4.4v10.7c0,0.3-0.2,0.4-0.4,0.4H259.4z"/>
				<path class="st0" d="M288.4,44.6c-0.2,0-0.4-0.2-0.4-0.4v-1.5h0c-1,1.4-2.6,2.3-5.3,2.3c-3.4,0-5.8-1.7-6.9-4.9
					c-0.5-1.6-0.7-3.1-0.7-5.7c0-2.6,0.2-4.1,0.7-5.7c1-3.2,3.5-4.9,6.9-4.9c2.7,0,4.4,1,5.3,2.3h0v-9.7c0-0.3,0.2-0.4,0.4-0.4h5
					c0.2,0,0.4,0.2,0.4,0.4v27.6c0,0.3-0.2,0.4-0.4,0.4H288.4z M287.6,38c0.3-0.8,0.4-1.7,0.4-3.5c0-1.8-0.1-2.7-0.4-3.5
					c-0.5-1.5-1.5-2.2-3.1-2.2c-1.6,0-2.7,0.7-3.1,2.2c-0.2,0.8-0.4,1.7-0.4,3.5c0,1.8,0.1,2.7,0.4,3.5c0.5,1.4,1.5,2.2,3.1,2.2
					C286,40.1,287.1,39.4,287.6,38"/>
				<path class="st0" d="M298.8,39.3c-0.4-1.3-0.7-2.7-0.7-4.8c0-2.1,0.2-3.6,0.7-4.9c1.2-3.6,4.4-5.7,8.7-5.7
					c4.5,0,7.6,2.1,8.7,5.7c0.4,1.3,0.7,2.8,0.7,6.2c0,0.2-0.2,0.4-0.5,0.4h-12.3c-0.2,0-0.3,0.1-0.3,0.2c0,0.4,0.1,0.8,0.3,1.1
					c0.5,1.8,2.1,2.7,4.2,2.7c2,0,3.5-0.7,4.6-1.8c0.2-0.2,0.4-0.2,0.6,0l2.8,2.6c0.2,0.2,0.2,0.4,0,0.6c-1.9,2-4.9,3.4-8.6,3.4
					C303.2,45.1,300,42.9,298.8,39.3 M310.9,32.4c0.2,0,0.3-0.1,0.3-0.3c0-0.6-0.1-1.1-0.2-1.5c-0.5-1.4-1.7-2.2-3.4-2.2
					s-2.9,0.8-3.4,2.2c-0.1,0.4-0.2,0.9-0.2,1.5c0,0.2,0.1,0.3,0.3,0.3H310.9z"/>
				<path class="st0" d="M321.6,44.6c-0.2,0-0.4-0.2-0.4-0.4V24.8c0-0.2,0.2-0.4,0.4-0.4h5c0.2,0,0.4,0.2,0.4,0.4v1.7h0
					c1-1.6,2.8-2.6,5.3-2.6c1.3,0,2.7,0.5,3.6,1.2c0.2,0.2,0.3,0.3,0.1,0.6l-2.3,4.3c-0.2,0.2-0.3,0.2-0.6,0.1c-1-0.6-1.9-1-2.9-0.9
					c-2.2,0.1-3.1,1.7-3.1,4.4v10.7c0,0.3-0.2,0.4-0.4,0.4H321.6z"/>
				<path class="st0" d="M338.3,30.4c0-4.4,0.2-5.9,0.8-7.7c1.5-4.6,5.1-7,10.1-7c4.8,0,8.3,2.3,9.9,6.3c0.1,0.2,0,0.4-0.2,0.5
					l-4.6,2c-0.3,0.1-0.5,0-0.6-0.2c-0.8-1.8-2.1-3.2-4.5-3.2c-2.2,0-3.6,1.2-4.3,3.1c-0.3,1-0.5,2-0.5,6.1s0.1,5.1,0.5,6.1
					c0.6,2,2.1,3.1,4.3,3.1c2.4,0,3.7-1.4,4.5-3.2c0.1-0.3,0.3-0.3,0.6-0.2l4.6,2.1c0.2,0.1,0.3,0.3,0.2,0.5c-1.6,4-5.1,6.3-9.9,6.3
					c-5,0-8.6-2.3-10.1-7C338.5,36.2,338.3,34.8,338.3,30.4"/>
				<path class="st0" d="M369.2,44.9c-4.5,0-6.3-2-6.3-6.4V16.6c0-0.3,0.2-0.4,0.4-0.4h5c0.2,0,0.4,0.2,0.4,0.4V38
					c0,1.4,0.5,1.9,1.8,1.9h0.9c0.2,0,0.4,0.2,0.4,0.4v4.1c0,0.2-0.2,0.4-0.4,0.4H369.2z"/>
				<path class="st0" d="M375.4,39.4c-0.5-1.5-0.7-2.9-0.7-4.9c0-2,0.2-3.4,0.7-4.9c1.2-3.7,4.5-5.7,8.8-5.7c4.3,0,7.6,2,8.8,5.7
					c0.5,1.5,0.7,2.9,0.7,4.9c0,2-0.2,3.4-0.7,4.9c-1.2,3.7-4.5,5.7-8.8,5.7C379.9,45.1,376.6,43.1,375.4,39.4 M387.3,38
					c0.3-0.9,0.4-1.8,0.4-3.5c0-1.7-0.1-2.6-0.4-3.5c-0.5-1.4-1.6-2.2-3.1-2.2c-1.5,0-2.7,0.8-3.1,2.2c-0.3,0.9-0.4,1.8-0.4,3.5
					c0,1.7,0.1,2.6,0.4,3.5c0.5,1.4,1.6,2.2,3.1,2.2C385.7,40.1,386.9,39.4,387.3,38"/>
				<path class="st0" d="M410.2,44.6c-0.2,0-0.4-0.2-0.4-0.4v-1.5h0c-1,1.4-2.6,2.3-5.2,2.3c-4.5,0-6.8-3.1-6.8-7.5V24.8
					c0-0.2,0.2-0.4,0.4-0.4h5c0.2,0,0.4,0.2,0.4,0.4v11.6c0,2.2,1,3.7,3.1,3.7c2,0,3.1-1.5,3.1-3.7V24.8c0-0.2,0.2-0.4,0.4-0.4h5
					c0.3,0,0.4,0.2,0.4,0.4v19.4c0,0.3-0.2,0.4-0.4,0.4H410.2z"/>
				<path class="st0" d="M433.2,44.6c-0.3,0-0.4-0.2-0.4-0.4v-1.5h0c-1,1.4-2.6,2.3-5.3,2.3c-3.4,0-5.8-1.7-6.9-4.9
					c-0.5-1.6-0.7-3.1-0.7-5.7c0-2.6,0.2-4.1,0.7-5.7c1-3.2,3.5-4.9,6.9-4.9c2.7,0,4.3,1,5.3,2.3h0v-9.7c0-0.3,0.2-0.4,0.4-0.4h5
					c0.3,0,0.4,0.2,0.4,0.4v27.6c0,0.3-0.2,0.4-0.4,0.4H433.2z M432.4,38c0.2-0.8,0.4-1.7,0.4-3.5c0-1.8-0.1-2.7-0.4-3.5
					c-0.5-1.5-1.5-2.2-3.1-2.2c-1.6,0-2.7,0.7-3.1,2.2c-0.3,0.8-0.4,1.7-0.4,3.5c0,1.8,0.1,2.7,0.4,3.5c0.5,1.4,1.5,2.2,3.1,2.2
					C430.9,40.1,432,39.4,432.4,38"/>
				<path class="st0" d="M443.7,22.3c-0.1,0-0.2-0.1-0.2-0.2V17l-0.1-0.1h-1.7c-0.1,0-0.2-0.1-0.2-0.2v-0.3c0-0.1,0.1-0.2,0.2-0.2
					h4.2c0.1,0,0.2,0.1,0.2,0.2v0.3c0,0.1-0.1,0.2-0.2,0.2h-1.7l-0.1,0.1v5.1c0,0.1-0.1,0.2-0.2,0.2H443.7z M452.2,22.3
					c-0.1,0-0.2-0.1-0.2-0.2v-4.3h0l-1.7,3.5c0,0.1-0.1,0.1-0.2,0.1h-0.3c-0.1,0-0.1,0-0.2-0.1l-1.7-3.5h0v4.3
					c0,0.1-0.1,0.2-0.2,0.2h-0.3c-0.1,0-0.2-0.1-0.2-0.2v-5.7c0-0.1,0.1-0.2,0.2-0.2h0.3c0.1,0,0.2,0,0.2,0.1l2,4.2h0l2-4.2
					c0-0.1,0.1-0.1,0.2-0.1h0.4c0.1,0,0.2,0.1,0.2,0.2v5.7c0,0.1-0.1,0.2-0.2,0.2H452.2z"/>
			</g>
		</g>
		<g>
			<path class="st0" d="M232,57.4c0-0.5,0.3-0.8,0.8-0.8h17.7c9.4,0,15.5,3.7,18,11.5c1.1,3.3,1.6,6.5,1.6,16.8
				c0,10.3-0.5,13.5-1.6,16.8c-2.5,7.7-8.6,11.5-18,11.5h-17.7c-0.5,0-0.8-0.3-0.8-0.8V57.4z M237.3,108.6h12.6
				c7.3,0,12.1-2.6,14.1-8.6c0.9-2.7,1.3-5.6,1.3-15.2s-0.4-12.5-1.3-15.2c-2-6-6.8-8.6-14.1-8.6h-12.6c-0.3,0-0.5,0.2-0.5,0.5v46.5
				C236.8,108.4,236.9,108.6,237.3,108.6z"/>
			<path class="st0" d="M279,57.4c0-0.5,0.3-0.8,0.8-0.8h32.3c0.5,0,0.8,0.3,0.8,0.8v2.8c0,0.5-0.3,0.8-0.8,0.8h-27.9
				c-0.3,0-0.5,0.2-0.5,0.5v20.1c0,0.3,0.2,0.5,0.5,0.5h24c0.5,0,0.8,0.3,0.8,0.8v2.8c0,0.5-0.3,0.8-0.8,0.8h-24
				c-0.3,0-0.5,0.2-0.5,0.5v20.9c0,0.3,0.2,0.5,0.5,0.5h27.9c0.5,0,0.8,0.3,0.8,0.8v2.8c0,0.5-0.3,0.8-0.8,0.8h-32.3
				c-0.5,0-0.8-0.3-0.8-0.8V57.4z"/>
			<path class="st0" d="M337.7,113.1c-0.5,0-0.7-0.3-0.9-0.8l-18.7-54.5c-0.3-0.7,0-1.2,0.6-1.2h2.9c0.7,0,1,0.2,1.2,0.8l16.4,47.8
				h0.2l15.9-47.8c0.2-0.7,0.5-0.8,1.2-0.8h3c0.6,0,0.9,0.4,0.7,1.2l-18.6,54.5c-0.2,0.5-0.5,0.8-1,0.8H337.7z"/>
			<path class="st0" d="M383,84.8c0-9.9,0.6-13.6,1.5-16.4c2.8-8.5,9-12.6,17.9-12.6c7.7,0,13.8,3.6,17,10.5
				c0.2,0.4,0.2,0.8-0.2,1.1l-2.7,1.3c-0.4,0.2-0.8,0.1-1.1-0.3c-2.6-4.8-6.6-8.1-13-8.1c-6.9,0-11.1,3.2-13.3,9.4
				c-0.7,2.2-1.2,5.7-1.2,15.2s0.5,13,1.2,15.2c2.2,6.1,6.4,9.4,13.3,9.4c6.4,0,10.4-3.2,13-8.1c0.2-0.4,0.7-0.6,1.1-0.3l2.7,1.3
				c0.4,0.2,0.4,0.7,0.2,1.1c-3.2,6.9-9.3,10.5-17,10.5c-8.9,0-15-4.2-17.9-12.6C383.6,98.4,383,94.7,383,84.8z"/>
			<path class="st0" d="M427,57.4c0-0.5,0.3-0.8,0.8-0.8h32.3c0.5,0,0.8,0.3,0.8,0.8v2.8c0,0.5-0.3,0.8-0.8,0.8h-27.9
				c-0.3,0-0.5,0.2-0.5,0.5v20.1c0,0.3,0.2,0.5,0.5,0.5h24c0.5,0,0.8,0.3,0.8,0.8v2.8c0,0.5-0.3,0.8-0.8,0.8h-24
				c-0.3,0-0.5,0.2-0.5,0.5v20.9c0,0.3,0.2,0.5,0.5,0.5h27.9c0.5,0,0.8,0.3,0.8,0.8v2.8c0,0.5-0.3,0.8-0.8,0.8h-32.3
				c-0.5,0-0.8-0.3-0.8-0.8V57.4z"/>
			<path class="st0" d="M468.5,57.4c0-0.5,0.3-0.8,0.8-0.8h3.1c0.6,0,1.1,0.2,1.4,0.8l28.2,46.4h0.2V57.4c0-0.5,0.3-0.8,0.8-0.8h3.1
				c0.5,0,0.8,0.3,0.8,0.8v54.8c0,0.5-0.3,0.8-0.8,0.8h-3.2c-0.5,0-1-0.2-1.4-0.8l-27.9-46.5h-0.3v46.5c0,0.5-0.3,0.8-0.8,0.8h-3.1
				c-0.5,0-0.8-0.3-0.8-0.8V57.4z"/>
			<path class="st0" d="M531.7,113.1c-0.5,0-0.8-0.3-0.8-0.8V61.5c0-0.3-0.2-0.5-0.5-0.5h-16.3c-0.5,0-0.8-0.3-0.8-0.8v-2.8
				c0-0.5,0.3-0.8,0.8-0.8h38.3c0.5,0,0.8,0.3,0.8,0.8v2.8c0,0.5-0.3,0.8-0.8,0.8h-16.3c-0.3,0-0.5,0.2-0.5,0.5v50.7
				c0,0.5-0.3,0.8-0.8,0.8H531.7z"/>
			<path class="st0" d="M559.6,57.4c0-0.5,0.3-0.8,0.8-0.8h32.3c0.5,0,0.8,0.3,0.8,0.8v2.8c0,0.5-0.3,0.8-0.8,0.8h-27.9
				c-0.3,0-0.5,0.2-0.5,0.5v20.1c0,0.3,0.2,0.5,0.5,0.5h24c0.5,0,0.8,0.3,0.8,0.8v2.8c0,0.5-0.3,0.8-0.8,0.8h-24
				c-0.3,0-0.5,0.2-0.5,0.5v20.9c0,0.3,0.2,0.5,0.5,0.5h27.9c0.5,0,0.8,0.3,0.8,0.8v2.8c0,0.5-0.3,0.8-0.8,0.8h-32.3
				c-0.5,0-0.8-0.3-0.8-0.8V57.4z"/>
			<path class="st0" d="M634.5,113.1c-0.5,0-0.7-0.2-1-0.7l-11.9-24.5h-0.8h-14.5c-0.3,0-0.5,0.2-0.5,0.5v23.9
				c0,0.5-0.3,0.8-0.8,0.8h-3.1c-0.5,0-0.8-0.3-0.8-0.8V57.4c0-0.5,0.3-0.8,0.8-0.8h18.9c10.6,0,17.2,6,17.2,15.6
				c0,7.8-4.3,13.2-11.5,15l12.3,25c0.3,0.5,0.1,0.9-0.4,0.9H634.5z M633.3,72.2c0-7.1-4.5-11.1-12.5-11.1h-14.5
				c-0.3,0-0.5,0.2-0.5,0.5v21.3c0,0.3,0.2,0.5,0.5,0.5h14.5C628.8,83.3,633.3,79.3,633.3,72.2z"/>
		</g>
	</g>
</g>
</svg>
