<?xml version="1.0" encoding="UTF-8" standalone="no"?>
<svg
   xmlns:dc="http://purl.org/dc/elements/1.1/"
   xmlns:cc="http://creativecommons.org/ns#"
   xmlns:rdf="http://www.w3.org/1999/02/22-rdf-syntax-ns#"
   xmlns:svg="http://www.w3.org/2000/svg"
   xmlns="http://www.w3.org/2000/svg"
   viewBox="0 0 802.54669 242.33333"
   height="242.33333"
   width="802.54669"
   xml:space="preserve"
   id="svg2"
   version="1.1"><metadata
     id="metadata8"><rdf:RDF><cc:Work
         rdf:about=""><dc:format>image/svg+xml</dc:format><dc:type
           rdf:resource="http://purl.org/dc/dcmitype/StillImage" /></cc:Work></rdf:RDF></metadata><defs
     id="defs6" /><g
     transform="matrix(1.3333333,0,0,-1.3333333,0,242.33333)"
     id="g10"><g
       transform="scale(0.1)"
       id="g12"><path
         id="path14"
         style="fill:#ffffff;fill-opacity:1;fill-rule:nonzero;stroke:none"
         d="m 3529.96,605.031 c 8.89,0 16.35,-3.203 22.4,-9.609 l 63.53,-67.801 c -31.31,-39.851 -70.19,-70.101 -116.63,-90.73 -46.45,-20.641 -101.68,-30.961 -165.74,-30.961 -57.99,0 -110.14,9.879 -156.38,29.629 -46.28,19.742 -85.59,47.242 -117.97,82.461 -32.37,35.23 -57.29,77.039 -74.73,125.441 -17.44,48.391 -26.14,101.23 -26.14,158.527 0,38.43 4.17,74.989 12.53,109.688 8.36,34.691 20.56,66.629 36.57,95.804 16,29.18 35.32,55.51 57.91,79 22.58,23.49 48.12,43.5 76.59,60.05 28.48,16.54 59.53,29.18 93.15,37.9 33.63,8.71 69.46,13.08 107.54,13.08 28.48,0 55.44,-2.49 80.87,-7.48 25.45,-4.98 49.2,-11.92 71.26,-20.81 22.05,-8.9 42.43,-19.67 61.12,-32.3 18.68,-12.63 35.5,-26.42 50.45,-41.36 l -53.93,-73.67 c -3.19,-4.62 -7.29,-8.72 -12.26,-12.27 -4.99,-3.57 -11.76,-5.33 -20.28,-5.33 -8.54,0 -17.19,3.01 -25.9,9.06 -8.73,6.05 -19.4,12.82 -32.03,20.29 -12.63,7.47 -28.48,14.23 -47.51,20.28 -19.03,6.05 -43.15,9.07 -72.32,9.07 -32.38,0 -62.1,-5.86 -89.12,-17.61 -27.07,-11.74 -50.27,-28.74 -69.67,-50.978 -19.39,-22.238 -34.42,-49.55 -45.11,-81.929 -10.67,-32.387 -16.01,-69.215 -16.01,-110.485 0,-41.636 5.79,-78.726 17.36,-111.289 11.55,-32.57 27.39,-60.051 47.5,-82.48 20.1,-22.41 43.59,-39.41 70.47,-50.969 26.86,-11.57 55.58,-17.34 86.2,-17.34 18.13,0 34.58,0.879 49.36,2.672 14.76,1.777 28.46,4.797 41.11,9.066 12.61,4.274 24.55,9.782 35.75,16.551 11.2,6.75 22.51,15.289 33.89,25.61 3.93,3.211 8.02,5.882 12.29,8.019 4.27,2.133 8.89,3.203 13.88,3.203" /><path
         id="path16"
         style="fill:#ffffff;fill-opacity:1;fill-rule:nonzero;stroke:none"
         d="m 3686.87,414.469 h 147.32 v 703.094 h -147.32 z" /><path
         id="path18"
         style="fill:#ffffff;fill-opacity:1;fill-rule:nonzero;stroke:none"
         d="m 4205.16,516.949 c 41.98,0 73.12,14.5 93.39,43.5 20.3,29 30.44,72.153 30.44,129.449 0,56.93 -10.14,99.903 -30.44,128.903 -20.27,28.996 -51.41,43.5 -93.39,43.5 -43.07,0 -74.74,-14.504 -95.01,-43.5 -20.28,-29 -30.42,-71.973 -30.42,-128.903 0,-57.296 10.14,-100.449 30.42,-129.449 20.27,-29 51.94,-43.5 95.01,-43.5 z m 0,456.379 c 41.27,0 78.8,-6.594 112.61,-19.758 33.81,-13.164 62.82,-31.937 87.02,-56.304 24.18,-24.387 42.86,-54.008 56.03,-88.875 13.16,-34.879 19.76,-74.2 19.76,-117.961 0,-43.782 -6.6,-83.192 -19.76,-118.231 -13.17,-35.051 -31.85,-64.847 -56.03,-89.398 -24.2,-24.563 -53.21,-43.422 -87.02,-56.59 -33.81,-13.16 -71.34,-19.742 -112.61,-19.742 -41.64,0 -79.46,6.582 -113.43,19.742 -34,13.168 -63.08,32.027 -87.27,56.59 -24.2,24.551 -42.96,54.347 -56.31,89.398 -13.35,35.039 -20.01,74.449 -20.01,118.231 0,43.761 6.66,83.082 20.01,117.961 13.35,34.867 32.11,64.488 56.31,88.875 24.19,24.367 53.27,43.14 87.27,56.304 33.97,13.164 71.79,19.758 113.43,19.758" /><path
         id="path20"
         style="fill:#ffffff;fill-opacity:1;fill-rule:nonzero;stroke:none"
         d="M 5056.5,964.781 V 414.469 h -90.74 c -18.87,0 -30.95,8.551 -36.3,25.621 l -9.61,38.43 c -11.02,-10.68 -22.41,-20.469 -34.16,-29.348 -11.73,-8.902 -24.28,-16.551 -37.63,-22.961 -13.33,-6.402 -27.74,-11.391 -43.24,-14.941 -15.47,-3.551 -32.27,-5.34 -50.42,-5.34 -29.91,0 -56.5,5.172 -79.81,15.48 -23.3,10.309 -42.78,24.731 -58.44,43.231 -15.66,18.5 -27.59,40.57 -35.77,66.187 -8.18,25.633 -12.27,53.731 -12.27,84.332 v 349.621 h 147.32 V 615.16 c 0,-30.601 7.02,-54.351 21.08,-71.25 14.04,-16.91 34.95,-25.351 62.71,-25.351 20.65,0 40.05,4.543 58.18,13.601 18.15,9.078 35.4,21.449 51.78,37.102 v 395.519 h 147.32" /><path
         id="path22"
         style="fill:#ffffff;fill-opacity:1;fill-rule:nonzero;stroke:none"
         d="m 5518.21,821.734 c -13.88,16.016 -28.91,27.219 -45.1,33.625 -16.21,6.411 -33.36,9.61 -51.51,9.61 -17.8,0 -33.99,-3.383 -48.57,-10.141 -14.59,-6.766 -27.14,-17.344 -37.63,-31.766 -10.51,-14.414 -18.6,-32.824 -24.28,-55.242 -5.71,-22.41 -8.55,-49.101 -8.55,-80.058 0,-30.614 2.31,-56.582 6.93,-77.934 4.62,-21.348 11.31,-38.609 20.03,-51.777 8.71,-13.16 19.3,-22.68 31.75,-28.551 12.45,-5.871 26.33,-8.809 41.64,-8.809 25.96,0 47.77,5.161 65.39,15.481 17.6,10.308 34.24,24.906 49.9,43.758 z m 147.32,388.576 V 414.469 h -90.74 c -18.87,0 -30.97,8.551 -36.3,25.621 l -12.27,48.039 c -11.04,-12.098 -22.69,-23.141 -34.97,-33.09 -12.27,-9.969 -25.54,-18.598 -39.76,-25.891 -14.23,-7.296 -29.54,-12.898 -45.91,-16.808 -16.36,-3.918 -34.16,-5.871 -53.38,-5.871 -29.53,0 -56.58,6.222 -81.13,18.672 -24.55,12.461 -45.81,30.687 -63.78,54.711 -17.96,24.027 -31.95,53.468 -41.9,88.347 -9.95,34.86 -14.94,74.723 -14.94,119.563 0,40.918 5.6,79 16.8,114.226 11.22,35.223 27.15,65.649 47.77,91.27 20.65,25.625 45.57,45.719 74.74,60.312 29.16,14.586 61.56,21.883 97.15,21.883 29.89,0 55.05,-4.445 75.51,-13.336 20.47,-8.902 39.07,-21.004 55.79,-36.297 v 284.49 h 147.32" /><path
         id="path24"
         style="fill:#ffffff;fill-opacity:1;fill-rule:nonzero;stroke:none"
         d="m 5840.88,1193.26 h -48.54 v -132.87 h -20.19 v 132.87 h -48.65 v 17.05 h 117.38 v -17.05" /><path
         id="path26"
         style="fill:#ffffff;fill-opacity:1;fill-rule:nonzero;stroke:none"
         d="m 6019.06,1210.31 v -149.92 h -17.79 v 110.17 c 0,1.46 0.05,3.03 0.16,4.71 0.1,1.67 0.23,3.38 0.37,5.12 l -51.48,-93.74 c -1.61,-3.14 -4.05,-4.71 -7.32,-4.71 h -2.93 c -3.28,0 -5.72,1.57 -7.33,4.71 l -52.52,94.16 c 0.42,-3.7 0.63,-7.11 0.63,-10.25 v -110.17 h -17.79 v 149.92 h 14.97 c 1.81,0 3.2,-0.17 4.18,-0.52 0.98,-0.35 1.92,-1.33 2.83,-2.93 l 51.78,-92.27 c 0.84,-1.68 1.66,-3.42 2.46,-5.24 0.8,-1.81 1.55,-3.66 2.25,-5.55 0.7,1.89 1.43,3.75 2.2,5.6 0.77,1.85 1.6,3.61 2.51,5.29 l 50.85,92.17 c 0.83,1.6 1.76,2.58 2.77,2.93 1.01,0.35 2.42,0.52 4.24,0.52 h 14.96" /><path
         id="path28"
         style="fill:#ffffff;fill-opacity:1;fill-rule:nonzero;stroke:none"
         d="m 1143.84,945.512 c -22.46,-17.895 -42.28,-42.278 -59.46,-73.153 l -7.9,54.211 c -2.46,12.977 -6.49,22.106 -12.1,27.368 -5.61,5.257 -15.79,7.878 -30.52,7.878 H 948.09 V 419.289 h 145.23 V 751.34 c 5.61,12.961 11.65,24.551 18.15,34.73 6.49,10.168 13.77,18.758 21.84,25.789 8.07,7.016 17.28,12.438 27.63,16.305 10.35,3.852 22.19,5.785 35.52,5.785 9.12,0 18.94,-0.785 29.47,-2.359 10.52,-1.59 18.59,-2.375 24.2,-2.375 6.32,0 11.32,1.328 15,3.949 3.68,2.641 6.39,7.453 8.16,14.469 l 9.47,107.351 c -15.44,11.567 -35.44,17.371 -59.99,17.371 -30.17,0 -56.48,-8.949 -78.93,-26.843" /><path
         id="path30"
         style="fill:#ffffff;fill-opacity:1;fill-rule:nonzero;stroke:none"
         d="m 1668.49,582.43 c -15.44,-18.598 -31.84,-32.989 -49.21,-43.149 -17.36,-10.203 -38.85,-15.269 -64.45,-15.269 -15.1,0 -28.77,2.898 -41.05,8.679 -12.29,5.778 -22.72,15.18 -31.31,28.149 -8.6,12.98 -15.18,30.012 -19.73,51.051 -4.56,21.039 -6.84,46.648 -6.84,76.82 0,30.527 2.8,56.828 8.41,78.937 5.61,22.102 13.59,40.262 23.95,54.473 10.34,14.207 22.7,24.645 37.09,31.293 14.38,6.672 30.34,10.02 47.89,10.02 17.89,0 34.82,-3.164 50.78,-9.473 15.96,-6.328 30.78,-17.371 44.47,-33.172 z m 0,340.976 c -16.5,15.094 -34.83,27.024 -54.99,35.789 -20.18,8.766 -44.99,13.16 -74.46,13.16 -35.09,0 -67.01,-7.195 -95.78,-21.582 -28.77,-14.39 -53.32,-34.199 -73.66,-59.468 -20.36,-25.254 -36.05,-55.239 -47.1,-89.985 -11.05,-34.718 -16.58,-72.261 -16.58,-112.609 0,-44.191 4.91,-83.492 14.74,-117.871 9.81,-34.379 23.58,-63.399 41.31,-87.078 17.7,-23.68 38.67,-41.672 62.88,-53.953 24.21,-12.27 50.86,-18.418 79.99,-18.418 18.94,0 36.47,1.937 52.62,5.808 16.13,3.852 31.21,9.371 45.25,16.563 14.02,7.199 27.1,15.699 39.2,25.539 12.11,9.808 23.59,20.668 34.48,32.597 l 12.1,-47.347 c 5.26,-16.832 17.18,-25.262 35.78,-25.262 h 89.45 V 1203.89 H 1668.49 V 923.406" /><path
         id="path32"
         style="fill:#ffffff;fill-opacity:1;fill-rule:nonzero;stroke:none"
         d="m 2052.11,754.488 c 5.95,36.492 18.76,64.547 38.41,84.196 19.63,19.652 46.83,29.484 81.56,29.484 18.59,0 34.55,-3.082 47.88,-9.211 13.33,-6.145 24.39,-14.488 33.16,-25.008 8.76,-10.519 15.17,-22.629 19.2,-36.301 4.03,-13.679 6.06,-28.07 6.06,-43.16 z m 289.15,151.024 c -21.23,21.058 -46.49,37.097 -75.77,48.164 -29.3,11.043 -61.32,16.562 -96.04,16.562 -41.05,0 -77.88,-7.093 -110.5,-21.3 -32.63,-14.208 -60.35,-33.411 -83.15,-57.633 -22.8,-24.207 -40.26,-52.621 -52.36,-85.246 -12.1,-32.629 -18.15,-67.348 -18.15,-104.188 0,-47.699 7.01,-89.641 21.04,-125.769 14.03,-36.133 33.24,-66.383 57.63,-90.774 24.37,-24.379 52.96,-42.797 85.77,-55.246 32.8,-12.441 68.14,-18.691 106.03,-18.691 18.94,0 38.59,1.328 58.94,3.949 20.34,2.64 40.52,7.379 60.51,14.211 20,6.847 39.29,16.14 57.89,27.89 18.59,11.75 35.6,26.579 51.05,44.481 l -42.1,52.617 c -6.32,8.422 -15.1,12.609 -26.32,12.609 -8.77,0 -17.62,-2.359 -26.57,-7.089 -8.95,-4.739 -18.94,-10 -30,-15.778 -11.04,-5.812 -23.86,-11.062 -38.41,-15.801 -14.56,-4.742 -31.84,-7.089 -51.83,-7.089 -39.3,0 -71.13,11.75 -95.51,35.238 -24.39,23.5 -38.86,60.699 -43.41,111.57 h 325.2 c 6.66,0 12.1,0.781 16.31,2.352 4.21,1.597 7.54,4.48 10,8.687 2.45,4.211 4.21,9.813 5.27,16.852 1.04,7.012 1.57,15.961 1.57,26.84 0,39.281 -5.88,74.261 -17.62,104.972 -11.76,30.692 -28.25,56.571 -49.47,77.61" /><path
         id="path34"
         style="fill:#ffffff;fill-opacity:1;fill-rule:nonzero;stroke:none"
         d="m 2773.02,972.355 c -30.17,0 -56.48,-8.949 -78.93,-26.843 -22.46,-17.895 -42.28,-42.278 -59.46,-73.153 l -7.9,54.211 c -2.46,12.977 -6.49,22.106 -12.1,27.368 -5.61,5.257 -15.79,7.878 -30.52,7.878 h -85.77 V 419.289 h 145.23 V 751.34 c 5.61,12.961 11.66,24.551 18.15,34.73 6.49,10.168 13.77,18.758 21.84,25.789 8.07,7.016 17.28,12.438 27.63,16.305 10.35,3.852 22.19,5.785 35.52,5.785 9.12,0 18.94,-0.785 29.47,-2.359 10.52,-1.59 18.59,-2.375 24.2,-2.375 6.32,0 11.32,1.328 15,3.949 3.68,2.641 6.39,7.453 8.16,14.469 l 9.47,107.351 c -15.44,11.567 -35.44,17.371 -59.99,17.371" /><path
         id="path36"
         style="fill:#ffffff;fill-opacity:1;fill-rule:nonzero;stroke:none"
         d="m 753.125,1079.45 c -34.199,34.88 -75.34,62.25 -123.395,82.08 -48.07,19.81 -101.382,29.72 -159.968,29.72 -58.59,0 -111.914,-9.91 -159.969,-29.72 -48.074,-19.83 -89.285,-47.1 -123.664,-81.82 -34.391,-34.75 -60.961,-75.88 -79.723,-123.417 C 87.6328,908.754 78.2539,857.105 78.2539,801.32 c 0,-36.039 3.9766,-70.379 11.8125,-103.05 l 153.0276,51.921 c -2.078,16.239 -3.289,33.188 -3.289,51.129 0,40.004 5.257,75.875 15.777,107.618 10.531,31.757 25.695,58.761 45.527,81.031 19.809,22.291 43.942,39.301 72.356,51.051 28.414,11.74 60.508,17.63 96.297,17.63 35.781,0 67.793,-5.89 96.039,-17.63 28.23,-11.75 52.261,-28.76 72.082,-51.051 19.82,-22.27 34.996,-49.274 45.523,-81.031 10.524,-31.743 15.782,-67.614 15.782,-107.618 0,-40.34 -5.258,-76.379 -15.782,-108.14 -10.527,-31.739 -25.703,-58.66 -45.523,-80.77 -19.821,-22.101 -43.852,-39.031 -72.082,-50.781 -28.246,-11.75 -60.258,-17.609 -96.039,-17.609 -35.789,0 -67.883,5.859 -96.297,17.609 -12.555,5.191 -24.129,11.57 -35.008,18.781 -21.383,-41.039 -42.742,-82.09 -63.996,-123.199 11.34,-6.012 23.101,-11.563 35.332,-16.59 48.055,-19.832 101.379,-29.75 159.969,-29.75 58.586,0 111.898,9.918 159.968,29.75 48.055,19.809 89.196,47.09 123.395,81.809 34.211,34.73 60.687,75.961 79.461,123.66 18.762,47.699 28.152,99.449 28.152,155.23 0,55.442 -9.39,106.91 -28.152,154.45 -18.774,47.54 -45.25,88.75 -79.461,123.68" /><path
         id="path38"
         style="fill:#ffffff;fill-opacity:1;fill-rule:nonzero;stroke:none"
         d="m 0.449219,467.199 c 8.218751,7.36 16.316381,14.871 24.679681,22.071 27.2813,23.5 54.6602,46.878 82.0001,70.32 0.726,0.621 1.398,1.32 2.433,2.301 -7.144,7.48 -14.1597,14.839 -21.1948,22.187 -7.9492,8.301 -15.9024,16.594 -23.875,24.863 -6.4453,6.68 -4.7852,13.688 4.0273,16.688 62.0705,21.07 124.1405,42.121 186.2105,63.18 21.043,7.14 42.102,14.242 63.125,21.429 4.196,1.442 7.985,1.434 11.168,-2.027 2.848,-3.09 2.938,-6.832 0.422,-11.672 C 289.168,619.211 248.77,541.93 208.789,464.441 c -4.156,-8.062 -12.527,-9.75 -18.508,-1.332 -12.722,17.922 -26.297,35.243 -39.726,53.071 -1.063,-0.801 -2.067,-1.45 -2.969,-2.231 -33.715,-28.91 -67.418,-57.828 -101.1329,-86.738 -2.0976,-1.789 -4.2969,-3.461 -6.4492,-5.191 -2.2344,0.171 -4.4687,0.339 -6.707,0.511 C 22.1992,435.461 11.0977,448.398 0,461.332 c 0.148438,1.949 0.296875,3.906 0.449219,5.867" /><path
         id="path40"
         style="fill:#ffffff;fill-opacity:1;fill-rule:nonzero;stroke:none"
         d="m 5439.31,1058.98 c 7.76,0 15.33,-0.31 22.77,-0.78 -75.22,128 -217.39,209.28 -370.15,209.28 -28.3,0 -56.51,-2.77 -84.2,-8.26 -45.46,303.27 -206.03,486.42 -478.21,544.96 -41.05,8.83 -83.33,13.31 -125.66,13.31 -216.81,0 -413.46,-114.5 -522.46,-301.45 -13.38,-0.69 -26.77,-1.2 -39.92,-1.71 -55.32,-2.12 -112.53,-4.31 -168.05,-19.1 -145.4,-38.72 -256.19,-118.47 -328.77,-234.18 13.95,1.25 28.05,2.1 42.43,2.1 31,0 60.9,-2.95 88.85,-8.76 12.46,-2.59 24.6,-5.74 36.48,-9.29 49.54,46.53 112.92,80.09 191,100.88 42.9,11.43 91.27,13.29 142.49,15.25 25.41,0.97 51.67,1.97 78.47,4.19 l 35.29,2.92 17.63,35.33 c 80.2,160.76 243.65,260.62 426.56,260.62 34.16,0 68.21,-3.59 101.23,-10.7 237.92,-51.17 358.6,-208.47 379.76,-495.01 l 6.7,-90.63 90.17,27.23 c 8.77,2.7 17.34,5.34 25.95,7.72 27.38,7.55 55.72,11.39 84.26,11.39 82.57,0 159.52,-31.77 214.21,-84.54 40.63,19.34 85.35,29.23 133.17,29.23" /><path
         id="path42"
         style="fill:#ffffff;fill-opacity:1;fill-rule:nonzero;stroke:none"
         d="m 1768.61,135.031 c 7.02,0 13.21,0.91 18.54,2.731 5.34,1.816 9.8,4.41 13.4,7.75 3.59,3.328 6.31,7.316 8.13,11.968 1.82,4.641 2.73,9.77 2.73,15.411 0,11.359 -3.53,20.289 -10.6,26.8 -7.07,6.5 -17.8,9.75 -32.2,9.75 h -28.88 v -74.41 z m 0,96.141 c 11.97,0 22.37,-1.383 31.23,-4.16 8.84,-2.782 16.17,-6.711 21.97,-11.782 5.81,-5.058 10.13,-11.21 12.95,-18.41 2.83,-7.199 4.24,-15.172 4.24,-23.929 0,-8.762 -1.53,-16.801 -4.56,-24.129 -3.04,-7.332 -7.5,-13.653 -13.4,-18.934 -5.9,-5.297 -13.25,-9.387 -22.05,-12.289 -8.8,-2.91 -18.92,-4.359 -30.38,-4.359 h -28.88 V 44.3594 h -27.7 V 231.172 h 56.58" /><path
         id="path44"
         style="fill:#ffffff;fill-opacity:1;fill-rule:nonzero;stroke:none"
         d="m 1920.43,62.3086 c 12.48,0 21.81,4.2226 27.97,12.6328 6.15,8.4102 9.23,20.25 9.23,35.4996 0,15.27 -3.08,27.141 -9.23,35.579 -6.16,8.46 -15.49,12.691 -27.97,12.691 -12.67,0 -22.09,-4.231 -28.3,-12.691 -6.19,-8.438 -9.3,-20.309 -9.3,-35.579 0,-15.2496 3.11,-27.0894 9.3,-35.4996 6.21,-8.4102 15.63,-12.6328 28.3,-12.6328 z m 0,116.3004 c 9.7,0 18.49,-1.578 26.34,-4.738 7.85,-3.172 14.52,-7.73 20.04,-13.66 5.5,-5.941 9.73,-13.102 12.68,-21.473 2.95,-8.367 4.42,-17.75 4.42,-28.168 0,-10.398 -1.47,-19.8083 -4.42,-28.2302 -2.95,-8.4101 -7.18,-15.5586 -12.68,-21.4609 -5.52,-5.8906 -12.19,-10.4297 -20.04,-13.5898 -7.85,-3.1602 -16.64,-4.75 -26.34,-4.75 -9.8,0 -18.63,1.5898 -26.48,4.75 -7.85,3.1601 -14.55,7.6992 -20.1,13.5898 -5.55,5.9023 -9.82,13.0508 -12.81,21.4609 -2.99,8.4219 -4.49,17.8322 -4.49,28.2302 0,10.418 1.5,19.801 4.49,28.168 2.99,8.371 7.26,15.532 12.81,21.473 5.55,5.93 12.25,10.488 20.1,13.66 7.85,3.16 16.68,4.738 26.48,4.738" /><path
         id="path46"
         style="fill:#ffffff;fill-opacity:1;fill-rule:nonzero;stroke:none"
         d="M 2200.5,176.539 2157.96,44.3594 h -20.3 c -2.42,0 -4.07,1.6015 -4.93,4.8203 l -27.84,86.1093 c -0.7,2.172 -1.3,4.32 -1.82,6.441 -0.53,2.129 -1.01,4.282 -1.44,6.442 -0.78,-4.5 -1.87,-8.891 -3.25,-13.141 l -28.23,-85.8513 c -0.87,-3.2188 -2.73,-4.8203 -5.59,-4.8203 h -19.26 l -42.67,132.1796 h 20.04 c 2,0 3.66,-0.48 5.01,-1.437 1.34,-0.954 2.24,-2.172 2.67,-3.641 l 23.81,-81.1719 c 0.78,-3.3008 1.47,-6.5079 2.07,-9.6407 0.61,-3.1093 1.18,-6.2382 1.69,-9.3476 0.78,3.1094 1.64,6.2383 2.55,9.3476 0.91,3.1328 1.83,6.3399 2.78,9.6407 l 26.41,81.6909 c 0.43,1.481 1.26,2.668 2.48,3.579 1.21,0.91 2.69,1.363 4.42,1.363 h 11.06 c 1.91,0 3.48,-0.453 4.74,-1.363 1.26,-0.911 2.11,-2.098 2.55,-3.579 l 25.75,-81.6909 c 0.96,-3.3008 1.87,-6.5391 2.73,-9.6993 0.86,-3.1679 1.65,-6.3515 2.35,-9.5586 0.52,3.1172 1.12,6.2579 1.82,9.4297 0.68,3.168 1.47,6.4375 2.34,9.8282 l 24.19,81.1719 c 0.43,1.469 1.32,2.687 2.67,3.641 1.35,0.957 2.89,1.437 4.62,1.437 h 19.12" /><path
         id="path48"
         style="fill:#ffffff;fill-opacity:1;fill-rule:nonzero;stroke:none"
         d="m 2314.2,125.148 c 0,5.032 -0.71,9.661 -2.15,13.922 -1.42,4.25 -3.53,7.93 -6.31,11.059 -2.77,3.109 -6.16,5.543 -10.13,7.281 -4.01,1.731 -8.59,2.602 -13.8,2.602 -10.67,0 -19.05,-3.082 -25.18,-9.231 -6.11,-6.16 -9.99,-14.711 -11.64,-25.633 z m 20.95,-61.9292 c -3.13,-3.6407 -6.72,-6.7774 -10.8,-9.418 -4.07,-2.6524 -8.41,-4.8008 -13.01,-6.4414 -4.59,-1.6602 -9.34,-2.8711 -14.24,-3.6485 -4.9,-0.7812 -9.74,-1.1718 -14.51,-1.1718 -9.1,0 -17.53,1.539 -25.3,4.6211 -7.76,3.0781 -14.49,7.5781 -20.16,13.5312 -5.68,5.9375 -10.11,13.3086 -13.27,22.1094 -3.17,8.8008 -4.75,18.9292 -4.75,30.3792 0,9.199 1.43,17.761 4.29,25.691 2.86,7.93 6.96,14.848 12.3,20.75 5.33,5.891 11.86,10.539 19.57,13.918 7.72,3.383 16.4,5.07 26.02,5.07 8.06,0 15.51,-1.32 22.31,-3.961 6.81,-2.648 12.69,-6.488 17.63,-11.519 4.94,-5.02 8.82,-11.231 11.65,-18.598 2.81,-7.371 4.22,-15.781 4.22,-25.23 0,-3.91 -0.43,-6.539 -1.3,-7.879 -0.87,-1.34 -2.47,-2.012 -4.81,-2.012 h -86.64 c 0.26,-7.898 1.38,-14.7694 3.38,-20.6288 1.99,-5.8398 4.75,-10.7304 8.26,-14.6328 3.51,-3.8984 7.69,-6.8086 12.55,-8.707 4.86,-1.9102 10.28,-2.8711 16.26,-2.8711 5.64,0 10.51,0.6485 14.64,1.9609 4.12,1.2969 7.68,2.7071 10.67,4.2188 2.99,1.5195 5.5,2.9297 7.54,4.2305 2.03,1.3007 3.84,1.9609 5.4,1.9609 2.08,0 3.69,-0.793 4.81,-2.3516 l 7.29,-9.371" /><path
         id="path50"
         style="fill:#ffffff;fill-opacity:1;fill-rule:nonzero;stroke:none"
         d="m 2394.86,151.172 c 4.25,8.656 9.37,15.469 15.35,20.418 5.99,4.949 13.18,7.422 21.59,7.422 2.86,0 5.58,-0.332 8.14,-0.981 2.55,-0.652 4.79,-1.621 6.69,-2.929 l -1.69,-19.122 c -0.61,-2.339 -2.03,-3.511 -4.29,-3.511 -1.22,0 -3.04,0.242 -5.46,0.711 -2.43,0.48 -5.03,0.718 -7.81,0.718 -4.08,0 -7.67,-0.589 -10.8,-1.75 -3.11,-1.179 -5.91,-2.918 -8.38,-5.207 -2.48,-2.312 -4.67,-5.121 -6.57,-8.453 -1.92,-3.347 -3.69,-7.136 -5.33,-11.386 V 44.3594 h -25.37 V 176.539 h 14.57 c 2.77,0 4.65,-0.5 5.65,-1.508 0.99,-0.992 1.72,-2.75 2.15,-5.261 l 1.56,-18.598" /><path
         id="path52"
         style="fill:#ffffff;fill-opacity:1;fill-rule:nonzero;stroke:none"
         d="m 2555.38,125.148 c 0,5.032 -0.71,9.661 -2.14,13.922 -1.43,4.25 -3.54,7.93 -6.31,11.059 -2.78,3.109 -6.16,5.543 -10.14,7.281 -4,1.731 -8.59,2.602 -13.8,2.602 -10.66,0 -19.05,-3.082 -25.17,-9.231 -6.12,-6.16 -10,-14.711 -11.65,-25.633 z m 20.95,-61.9292 c -3.12,-3.6407 -6.72,-6.7774 -10.8,-9.418 -4.07,-2.6524 -8.41,-4.8008 -13.01,-6.4414 -4.59,-1.6602 -9.34,-2.8711 -14.24,-3.6485 -4.9,-0.7812 -9.74,-1.1718 -14.51,-1.1718 -9.1,0 -17.53,1.539 -25.3,4.6211 -7.76,3.0781 -14.49,7.5781 -20.16,13.5312 -5.68,5.9375 -10.11,13.3086 -13.27,22.1094 -3.16,8.8008 -4.75,18.9292 -4.75,30.3792 0,9.199 1.44,17.761 4.29,25.691 2.86,7.93 6.97,14.848 12.3,20.75 5.33,5.891 11.86,10.539 19.57,13.918 7.72,3.383 16.4,5.07 26.03,5.07 8.06,0 15.5,-1.32 22.3,-3.961 6.81,-2.648 12.69,-6.488 17.64,-11.519 4.93,-5.02 8.81,-11.231 11.64,-18.598 2.81,-7.371 4.22,-15.781 4.22,-25.23 0,-3.91 -0.43,-6.539 -1.29,-7.879 -0.88,-1.34 -2.48,-2.012 -4.82,-2.012 h -86.64 c 0.26,-7.898 1.38,-14.7694 3.39,-20.6288 1.98,-5.8398 4.74,-10.7304 8.25,-14.6328 3.52,-3.8984 7.69,-6.8086 12.56,-8.707 4.85,-1.9102 10.27,-2.8711 16.26,-2.8711 5.63,0 10.51,0.6485 14.64,1.9609 4.11,1.2969 7.67,2.7071 10.66,4.2188 3,1.5195 5.5,2.9297 7.54,4.2305 2.03,1.3007 3.84,1.9609 5.41,1.9609 2.07,0 3.68,-0.793 4.8,-2.3516 l 7.29,-9.371" /><path
         id="path54"
         style="fill:#ffffff;fill-opacity:1;fill-rule:nonzero;stroke:none"
         d="m 2697.32,144.531 c -4.16,5.469 -8.66,9.278 -13.47,11.449 -4.81,2.161 -10.21,3.25 -16.19,3.25 -11.63,0 -20.63,-4.179 -27,-12.558 -6.38,-8.363 -9.56,-20.57 -9.56,-36.613 0,-8.411 0.71,-15.5981 2.15,-21.5278 1.43,-5.9414 3.51,-10.7929 6.24,-14.5703 2.74,-3.7695 6.1,-6.5507 10.09,-8.332 3.99,-1.7773 8.49,-2.6601 13.53,-2.6601 7.36,0 13.74,1.6406 19.12,4.9414 5.37,3.289 10.4,7.9414 15.09,13.9218 z m 25.49,91.848 V 44.3594 h -15.35 c -3.55,0 -5.77,1.6914 -6.63,5.082 l -2.22,15.2188 c -5.63,-6.6797 -12.02,-12.0391 -19.18,-16.0821 -7.15,-4.0195 -15.41,-6.039 -24.78,-6.039 -7.55,0 -14.38,1.4726 -20.5,4.4218 -6.11,2.9493 -11.33,7.2696 -15.67,12.9493 -4.34,5.6796 -7.68,12.7304 -10.01,21.1406 -2.35,8.4101 -3.52,18.0781 -3.52,29.0082 0,9.8 1.3,18.91 3.9,27.32 2.61,8.41 6.38,15.691 11.32,21.851 4.94,6.161 10.93,11 17.95,14.508 7.04,3.512 14.97,5.274 23.81,5.274 7.98,0 14.77,-1.313 20.35,-3.91 5.6,-2.602 10.61,-6.293 15.04,-11.063 v 72.34 h 25.49" /><path
         id="path56"
         style="fill:#ffffff;fill-opacity:1;fill-rule:nonzero;stroke:none"
         d="m 2862.4,76.8789 c 4.15,-5.457 8.67,-9.2773 13.52,-11.4375 4.86,-2.1719 10.15,-3.25 15.88,-3.25 11.79,0 20.88,4.1992 27.25,12.6172 6.38,8.4102 9.56,21.1133 9.56,38.1134 0,15.699 -2.82,27.207 -8.46,34.539 -5.63,7.32 -13.61,11 -23.93,11 -7.28,0 -13.59,-1.66 -18.93,-4.949 -5.34,-3.301 -10.29,-7.981 -14.89,-14.063 z m 0,81.4411 c 5.46,6.071 11.65,10.969 18.59,14.711 6.95,3.719 14.84,5.578 23.68,5.578 7.73,0 14.68,-1.488 20.88,-4.488 6.2,-2.98 11.47,-7.281 15.81,-12.883 4.34,-5.578 7.68,-12.367 10.02,-20.347 2.33,-7.981 3.51,-17 3.51,-27.059 0,-10.672 -1.33,-20.3828 -3.96,-29.1406 -2.65,-8.7617 -6.43,-16.2617 -11.33,-22.5 -4.9,-6.2422 -10.86,-11.0898 -17.88,-14.5195 -7.03,-3.4102 -14.92,-5.1328 -23.68,-5.1328 -4.25,0 -8.16,0.4101 -11.7,1.2421 -3.56,0.8204 -6.84,2.0196 -9.82,3.5782 -3,1.5508 -5.76,3.4609 -8.27,5.7226 -2.51,2.2461 -4.9,4.8086 -7.16,7.668 l -1.16,-11.0586 c -0.7,-3.5508 -2.87,-5.332 -6.51,-5.332 h -16.39 V 236.379 h 25.37 V 158.32" /><path
         id="path58"
         style="fill:#ffffff;fill-opacity:1;fill-rule:nonzero;stroke:none"
         d="M 3101.75,176.539 3028.38,5.98047 C 3027.6,4.07812 3026.56,2.60156 3025.27,1.55859 3023.96,0.53125 3022.05,0 3019.54,0 h -18.86 l 24.19,52.6914 -54.24,123.8476 h 22.1 c 2.17,0 3.86,-0.527 5.08,-1.57 1.21,-1.028 2.08,-2.207 2.6,-3.508 l 33.57,-79.3516 c 0.69,-2 1.36,-4.0196 2.02,-6.0586 0.64,-2.0313 1.19,-4.0508 1.62,-6.0391 0.61,2.0781 1.26,4.1367 1.95,6.168 0.7,2.0391 1.43,4.0586 2.21,6.0508 l 32.4,79.2305 c 0.6,1.469 1.56,2.687 2.85,3.641 1.31,0.957 2.78,1.437 4.43,1.437 h 20.29" /><path
         id="path60"
         style="fill:#ffffff;fill-opacity:1;fill-rule:nonzero;stroke:none"
         d="m 3226.52,208.66 v -62.57 h 74.92 v -22.5 h -74.92 V 44.3594 h -27.84 V 231.172 h 115.77 V 208.66 h -87.93" /><path
         id="path62"
         style="fill:#ffffff;fill-opacity:1;fill-rule:nonzero;stroke:none"
         d="m 3391.99,62.3086 c 12.48,0 21.81,4.2226 27.97,12.6328 6.15,8.4102 9.22,20.25 9.22,35.4996 0,15.27 -3.07,27.141 -9.22,35.579 -6.16,8.46 -15.49,12.691 -27.97,12.691 -12.67,0 -22.1,-4.231 -28.3,-12.691 -6.2,-8.438 -9.3,-20.309 -9.3,-35.579 0,-15.2496 3.1,-27.0894 9.3,-35.4996 6.2,-8.4102 15.63,-12.6328 28.3,-12.6328 z m 0,116.3004 c 9.7,0 18.48,-1.578 26.33,-4.738 7.85,-3.172 14.53,-7.73 20.04,-13.66 5.51,-5.941 9.73,-13.102 12.68,-21.473 2.96,-8.367 4.43,-17.75 4.43,-28.168 0,-10.398 -1.47,-19.8083 -4.43,-28.2302 -2.95,-8.4101 -7.17,-15.5586 -12.68,-21.4609 -5.51,-5.8906 -12.19,-10.4297 -20.04,-13.5898 -7.85,-3.1602 -16.63,-4.75 -26.33,-4.75 -9.8,0 -18.63,1.5898 -26.48,4.75 -7.85,3.1601 -14.55,7.6992 -20.1,13.5898 -5.55,5.9023 -9.82,13.0508 -12.81,21.4609 -3,8.4219 -4.49,17.8322 -4.49,28.2302 0,10.418 1.49,19.801 4.49,28.168 2.99,8.371 7.26,15.532 12.81,21.473 5.55,5.93 12.25,10.488 20.1,13.66 7.85,3.16 16.68,4.738 26.48,4.738" /><path
         id="path64"
         style="fill:#ffffff;fill-opacity:1;fill-rule:nonzero;stroke:none"
         d="M 3600.13,176.539 V 44.3594 h -15.22 c -3.48,0 -5.73,1.6914 -6.77,5.082 l -1.81,13.2578 c -2.87,-3.0273 -5.86,-5.8086 -8.99,-8.3203 -3.12,-2.5195 -6.46,-4.6601 -10.02,-6.4375 -3.55,-1.7812 -7.32,-3.1719 -11.31,-4.1602 -3.99,-1 -8.28,-1.4921 -12.88,-1.4921 -7.28,0 -13.68,1.2109 -19.19,3.6406 -5.5,2.4219 -10.12,5.832 -13.86,10.1992 -3.72,4.3906 -6.54,9.6523 -8.44,15.8125 -1.91,6.1602 -2.87,12.9688 -2.87,20.418 v 84.1796 h 25.5 V 92.3594 c 0,-9.4492 2.17,-16.7891 6.51,-22.0391 4.32,-5.25 10.96,-7.8789 19.9,-7.8789 6.51,0 12.57,1.5391 18.21,4.6172 5.63,3.082 10.93,7.3008 15.87,12.6797 v 96.8007 h 25.37" /><path
         id="path66"
         style="fill:#ffffff;fill-opacity:1;fill-rule:nonzero;stroke:none"
         d="m 3666.07,151.172 c 4.25,8.656 9.37,15.469 15.36,20.418 5.98,4.949 13.18,7.422 21.59,7.422 2.85,0 5.57,-0.332 8.13,-0.981 2.55,-0.652 4.79,-1.621 6.69,-2.929 l -1.69,-19.122 c -0.6,-2.339 -2.03,-3.511 -4.29,-3.511 -1.21,0 -3.03,0.242 -5.46,0.711 -2.43,0.48 -5.03,0.718 -7.8,0.718 -4.09,0 -7.68,-0.589 -10.81,-1.75 -3.11,-1.179 -5.91,-2.918 -8.38,-5.207 -2.48,-2.312 -4.67,-5.121 -6.57,-8.453 -1.91,-3.347 -3.69,-7.136 -5.33,-11.386 V 44.3594 h -25.37 V 176.539 h 14.57 c 2.77,0 4.65,-0.5 5.66,-1.508 0.99,-0.992 1.71,-2.75 2.14,-5.261 l 1.56,-18.598" /><path
         id="path68"
         style="fill:#ffffff;fill-opacity:1;fill-rule:nonzero;stroke:none"
         d="m 3774.7,161.441 c 9.54,2 18.16,3 25.88,3 9.72,0 18.3,-1.461 25.76,-4.359 7.46,-2.91 13.73,-6.902 18.8,-11.973 5.08,-5.07 8.89,-11.058 11.44,-17.949 2.56,-6.898 3.84,-14.371 3.84,-22.449 0,-9.8829 -1.74,-18.8594 -5.2,-26.9219 -3.46,-8.0703 -8.24,-14.961 -14.31,-20.6875 -6.07,-5.7227 -13.25,-10.1328 -21.52,-13.211 -8.29,-3.0586 -17.2,-4.6015 -26.74,-4.6015 -5.65,0 -11,0.5625 -16.07,1.6914 -5.07,1.1211 -9.81,2.6093 -14.25,4.4804 -4.42,1.8594 -8.51,4.0079 -12.29,6.4375 -3.77,2.4219 -7.13,4.9922 -10.08,7.6719 l 7.8,10.9297 c 1.65,2.4297 3.86,3.6406 6.64,3.6406 1.82,0 3.84,-0.6601 6.05,-2.0117 2.21,-1.3477 4.83,-2.8398 7.87,-4.4883 3.03,-1.6523 6.63,-3.1523 10.8,-4.4922 4.16,-1.3398 9.11,-2.0195 14.82,-2.0195 6.34,0 12.04,1.0195 17.12,3.0625 5.07,2.0391 9.36,4.918 12.87,8.6602 3.52,3.7187 6.2,8.1796 8.07,13.3984 1.86,5.1992 2.79,10.961 2.79,17.301 0,5.629 -0.82,10.711 -2.47,15.219 -1.64,4.5 -4.12,8.359 -7.41,11.57 -3.3,3.211 -7.41,5.66 -12.36,7.351 -4.95,1.688 -10.71,2.539 -17.3,2.539 -9.19,0 -18.99,-1.652 -29.41,-4.941 l -15.99,4.68 15.22,88.203 h 89.5 v -11.051 c 0,-3.652 -1.15,-6.621 -3.44,-8.922 -2.3,-2.289 -6.14,-3.449 -11.52,-3.449 h -56.85 l -8.06,-46.309" /><path
         id="path70"
         style="fill:#ffffff;fill-opacity:1;fill-rule:nonzero;stroke:none"
         d="M 4016.53,63.75 V 44.3594 H 3915.57 V 63.75 h 39.56 v 122.41 c 0,3.91 0.13,7.93 0.38,12.102 l -31.74,-26.93 c -1.21,-0.953 -2.42,-1.562 -3.64,-1.832 -1.21,-0.25 -2.36,-0.301 -3.45,-0.129 -1.08,0.18 -2.04,0.551 -2.86,1.109 -0.82,0.559 -1.49,1.161 -2.01,1.758 l -7.94,11.063 55.94,48.258 h 20.68 V 63.75 h 36.04" /></g></g></svg>