<?xml version="1.0" encoding="utf-8"?>
<!-- Generator: Adobe Illustrator 19.2.0, SVG Export Plug-In . SVG Version: 6.00 Build 0)  -->
<svg version="1.1" id="Layer_1" xmlns="http://www.w3.org/2000/svg" xmlns:xlink="http://www.w3.org/1999/xlink" x="0px" y="0px"
	 viewBox="0 0 140.7 83.5" style="enable-background:new 0 0 140.7 83.5;" xml:space="preserve">
<style type="text/css">
	.st0{fill:#3590CE;}
</style>
<path class="st0" d="M69.7,40.1h-3.1c-1.1,0-2-0.9-2-2s0.9-2,2-2h3.1c1.1,0,2,0.9,2,2S70.8,40.1,69.7,40.1z"/>
<path class="st0" d="M80.7,40.1h-3.4c-1.1,0-2-0.9-2-2s0.9-2,2-2h3.4c1.1,0,2,0.9,2,2S81.8,40.1,80.7,40.1z"/>
<path class="st0" d="M95.9,40.1h-7.4c-1.1,0-2-0.9-2-2s0.9-2,2-2h7.4c1.1,0,2,0.9,2,2S97,40.1,95.9,40.1z"/>
<path class="st0" d="M113.5,49.6h-7.4c-1.1,0-2-0.9-2-2s0.9-2,2-2h7.4c1.1,0,2,0.9,2,2S114.6,49.6,113.5,49.6z"/>
<path class="st0" d="M70.1,59.1h-7.4c-1.1,0-2-0.9-2-2s0.9-2,2-2h7.4c1.1,0,2,0.9,2,2S71.2,59.1,70.1,59.1z"/>
<path class="st0" d="M107.6,40.1h-2.9c-1.1,0-2-0.9-2-2s0.9-2,2-2h2.9c1.1,0,2,0.9,2,2S108.7,40.1,107.6,40.1z"/>
<path class="st0" d="M97.3,49.6h-2.9c-1.1,0-2-0.9-2-2s0.9-2,2-2h2.9c1.1,0,2,0.9,2,2S98.5,49.6,97.3,49.6z"/>
<path class="st0" d="M48.4,68.3h-2.9c-1.1,0-2-0.9-2-2s0.9-2,2-2h2.9c1.1,0,2,0.9,2,2S49.5,68.3,48.4,68.3z"/>
<path class="st0" d="M138.5,82H2.7c-1.1,0-2-0.9-2-2V2.7c0-1.1,0.9-2,2-2h135.8c1.1,0,2,0.9,2,2V80C140.5,81.1,139.6,82,138.5,82z
	 M4.7,78h131.8V4.7H4.7V78z"/>
<circle class="st0" cx="130.8" cy="10.3" r="2.3"/>
<circle class="st0" cx="121.5" cy="10.3" r="2.3"/>
<circle class="st0" cx="112.3" cy="10.3" r="2.3"/>
<path class="st0" d="M138.5,19.7H2.7c-1.1,0-2-0.9-2-2s0.9-2,2-2h135.8c1.1,0,2,0.9,2,2S139.6,19.7,138.5,19.7z"/>
<path class="st0" d="M61.8,30.7H45.3c-1.1,0-2-0.9-2-2s0.9-2,2-2h16.5c1.1,0,2,0.9,2,2S62.9,30.7,61.8,30.7z"/>
<path class="st0" d="M82.1,30.7H71.6c-1.1,0-2-0.9-2-2s0.9-2,2-2h10.5c1.1,0,2,0.9,2,2S83.2,30.7,82.1,30.7z"/>
<path class="st0" d="M96.9,30.7h-5.5c-1.1,0-2-0.9-2-2s0.9-2,2-2h5.5c1.1,0,2,0.9,2,2S98,30.7,96.9,30.7z"/>
<path class="st0" d="M86.5,49.4H81c-1.1,0-2-0.9-2-2s0.9-2,2-2h5.5c1.1,0,2,0.9,2,2S87.6,49.4,86.5,49.4z"/>
<path class="st0" d="M58.5,40.1H45.6c-1.1,0-2-0.9-2-2s0.9-2,2-2h12.9c1.1,0,2,0.9,2,2S59.6,40.1,58.5,40.1z"/>
<path class="st0" d="M71.6,49.6H45.3c-1.1,0-2-0.9-2-2s0.9-2,2-2h26.3c1.1,0,2,0.9,2,2S72.7,49.6,71.6,49.6z"/>
<path class="st0" d="M104.6,59.1H78.3c-1.1,0-2-0.9-2-2s0.9-2,2-2h26.3c1.1,0,2,0.9,2,2S105.7,59.1,104.6,59.1z"/>
<path class="st0" d="M54.8,59.1h-9.5c-1.1,0-2-0.9-2-2s0.9-2,2-2h9.5c1.1,0,2,0.9,2,2S55.9,59.1,54.8,59.1z"/>
<path class="st0" d="M84,68.5H57.4c-1.1,0-2-0.9-2-2s0.9-2,2-2H84c1.1,0,2,0.9,2,2S85.1,68.5,84,68.5z"/>
<path class="st0" d="M32.3,82c-1.1,0-2-0.9-2-2V17.7c0-1.1,0.9-2,2-2s2,0.9,2,2V80C34.3,81.1,33.4,82,32.3,82z"/>
</svg>
