<?xml version="1.0" encoding="utf-8"?>
<!-- Generator: Adobe Illustrator 19.2.0, SVG Export Plug-In . SVG Version: 6.00 Build 0)  -->
<svg version="1.1" id="Layer_1" xmlns="http://www.w3.org/2000/svg" xmlns:xlink="http://www.w3.org/1999/xlink" x="0px" y="0px"
	 viewBox="0 0 140.7 83.5" style="enable-background:new 0 0 140.7 83.5;" xml:space="preserve">
<style type="text/css">
	.st0{fill:#3590CE;}
</style>
<path class="st0" d="M64.4,83.4H41.8c-1.1,0-2-0.9-2-2V70.1c0-1.1,0.9-2,2-2h22.6c1.1,0,2,0.9,2,2v11.2
	C66.4,82.5,65.5,83.4,64.4,83.4z M43.8,79.4h18.6v-7.2H43.8V79.4z"/>
<path class="st0" d="M75.6,83.4H30.7c-1.1,0-2-0.9-2-2s0.9-2,2-2h44.9c1.1,0,2,0.9,2,2S76.7,83.4,75.6,83.4z"/>
<path class="st0" d="M99.4,72.1H6.9c-3.4,0-6.2-2.8-6.2-6.2v-7c0-1.1,0.9-2,2-2s2,0.9,2,2v7c0,1.2,1,2.2,2.2,2.2h92.6
	c1.2,0,2.2-1,2.2-2.2v-7c0-1.1,0.9-2,2-2s2,0.9,2,2v7C105.6,69.3,102.9,72.1,99.4,72.1z"/>
<path class="st0" d="M103.6,60.8c-1.1,0-2-0.9-2-2V7c0-1.2-1-2.2-2.2-2.2H6.9c-1.2,0-2.2,1-2.2,2.2v51.8c0,1.1-0.9,2-2,2s-2-0.9-2-2
	V7c0-3.4,2.8-6.2,6.2-6.2h92.6c3.4,0,6.2,2.8,6.2,6.2v51.8C105.6,60,104.7,60.8,103.6,60.8z"/>
<path class="st0" d="M53.6,20.9h-20c-1.1,0-2-0.9-2-2s0.9-2,2-2h20c1.1,0,2,0.9,2,2S54.7,20.9,53.6,20.9z"/>
<path class="st0" d="M15.4,20.9H8.7c-1.1,0-2-0.9-2-2s0.9-2,2-2h6.7c1.1,0,2,0.9,2,2S16.5,20.9,15.4,20.9z"/>
<g>
	<path class="st0" d="M36.7,28.7h-3.1c-1.1,0-2-0.9-2-2s0.9-2,2-2h3.1c1.1,0,2,0.9,2,2S37.8,28.7,36.7,28.7z"/>
	<path class="st0" d="M47.7,28.7h-3.4c-1.1,0-2-0.9-2-2s0.9-2,2-2h3.4c1.1,0,2,0.9,2,2S48.8,28.7,47.7,28.7z"/>
	<path class="st0" d="M62.8,28.7h-7.4c-1.1,0-2-0.9-2-2s0.9-2,2-2h7.4c1.1,0,2,0.9,2,2S63.9,28.7,62.8,28.7z"/>
	<path class="st0" d="M74.5,28.7h-2.9c-1.1,0-2-0.9-2-2s0.9-2,2-2h2.9c1.1,0,2,0.9,2,2S75.6,28.7,74.5,28.7z"/>
</g>
<path class="st0" d="M49.1,36.4H33.5c-1.1,0-2-0.9-2-2s0.9-2,2-2h15.6c1.1,0,2,0.9,2,2S50.2,36.4,49.1,36.4z"/>
<path class="st0" d="M17.3,27.8H8.6c-1.1,0-2-0.9-2-2s0.9-2,2-2h8.7c1.1,0,2,0.9,2,2S18.4,27.8,17.3,27.8z"/>
<path class="st0" d="M13.8,34.9H8.6c-1.1,0-2-0.9-2-2s0.9-2,2-2h5.2c1.1,0,2,0.9,2,2S14.9,34.9,13.8,34.9z"/>
<g>
	<path class="st0" d="M36.7,44.1h-3.1c-1.1,0-2-0.9-2-2c0-1.1,0.9-2,2-2h3.1c1.1,0,2,0.9,2,2C38.7,43.2,37.8,44.1,36.7,44.1z"/>
	<path class="st0" d="M47.1,44.1h-3.3c-1.1,0-2-0.9-2-2c0-1.1,0.9-2,2-2h3.3c1.1,0,2,0.9,2,2C49.1,43.2,48.2,44.1,47.1,44.1z"/>
	<path class="st0" d="M60.7,44.1H54c-1.1,0-2-0.9-2-2c0-1.1,0.9-2,2-2h6.7c1.1,0,2,0.9,2,2C62.7,43.2,61.8,44.1,60.7,44.1z"/>
	<path class="st0" d="M77.1,44.1h-8.3c-1.1,0-2-0.9-2-2c0-1.1,0.9-2,2-2h8.3c1.1,0,2,0.9,2,2C79.1,43.2,78.2,44.1,77.1,44.1z"/>
</g>
<g>
	<path class="st0" d="M37.5,51.8h-4c-1.1,0-2-0.9-2-2s0.9-2,2-2h4c1.1,0,2,0.9,2,2S38.6,51.8,37.5,51.8z"/>
	<path class="st0" d="M77,51.8h-2.9c-1.1,0-2-0.9-2-2s0.9-2,2-2H77c1.1,0,2,0.9,2,2S78.1,51.8,77,51.8z"/>
	<path class="st0" d="M62.2,51.8H45.4c-1.1,0-2-0.9-2-2s0.9-2,2-2h16.8c1.1,0,2,0.9,2,2S63.3,51.8,62.2,51.8z"/>
</g>
<path class="st0" d="M103.6,13.8H2.6c-1.1,0-2-0.9-2-2s0.9-2,2-2h101c1.1,0,2,0.9,2,2S104.7,13.8,103.6,13.8z"/>
<path class="st0" d="M103.6,63H2.6c-1.1,0-2-0.9-2-2s0.9-2,2-2h101c1.1,0,2,0.9,2,2S104.7,63,103.6,63z"/>
<path class="st0" d="M23.7,63c-1.1,0-2-0.9-2-2V11.8c0-1.1,0.9-2,2-2s2,0.9,2,2V61C25.7,62.1,24.8,63,23.7,63z"/>
<path class="st0" d="M88.2,63c-1.1,0-2-0.9-2-2V11.8c0-1.1,0.9-2,2-2s2,0.9,2,2V61C90.2,62.1,89.3,63,88.2,63z"/>
<path class="st0" d="M103.6,34.9H88.2c-1.1,0-2-0.9-2-2V11.8c0-1.1,0.9-2,2-2h15.4c1.1,0,2,0.9,2,2v21.2
	C105.6,34,104.7,34.9,103.6,34.9z M90.2,30.9h11.4V13.8H90.2V30.9z"/>
<path class="st0" d="M121.9,26.5l1.9,5.8h6.1c0.9,0,1.2,1.1,0.5,1.6l-4.9,3.6l1.9,5.8c0.3,0.8-0.7,1.5-1.4,1l-4.9-3.6l-4.9,3.6
	c-0.7,0.5-1.6-0.2-1.4-1l1.9-5.8l-4.9-3.6c-0.7-0.5-0.3-1.6,0.5-1.6h6.1l1.9-5.8C120.5,25.6,121.6,25.6,121.9,26.5z"/>
<path class="st0" d="M104.8,79.3c-0.9,0-1.7-0.6-1.9-1.5c-0.3-1.1,0.4-2.2,1.5-2.4c7.9-1.9,14.7-17.4,14.7-28.8c0-1.1,0.9-2,2-2
	s2,0.9,2,2c0,11.6-6.9,30-17.8,32.6C105.1,79.2,104.9,79.3,104.8,79.3z"/>
<path class="st0" d="M137.3,79.3c-0.2,0-0.3,0-0.5-0.1C126,76.6,119,58.1,119,46.6c0-1.1,0.9-2,2-2s2,0.9,2,2
	c0,11.3,6.8,26.8,14.7,28.8c1.1,0.3,1.7,1.3,1.5,2.4C139,78.6,138.2,79.3,137.3,79.3z"/>
<path class="st0" d="M127.2,27.8c-0.4,0-0.7-0.1-1-0.3c-0.9-0.6-1.2-1.8-0.7-2.8l4.3-6.9c0.6-0.9,1.8-1.2,2.8-0.7
	c0.9,0.6,1.2,1.8,0.7,2.8l-4.3,6.9C128.6,27.5,127.9,27.8,127.2,27.8z"/>
<path class="st0" d="M115,27.8c-0.7,0-1.3-0.3-1.7-1l-4.3-6.9c-0.6-0.9-0.3-2.2,0.7-2.8c0.9-0.6,2.2-0.3,2.8,0.7l4.3,6.9
	c0.6,0.9,0.3,2.2-0.7,2.8C115.8,27.8,115.4,27.8,115,27.8z"/>
<path class="st0" d="M121,23c-1.1,0-2-0.9-2-2v-7.4c0-1.1,0.9-2,2-2s2,0.9,2,2V21C123,22.1,122.1,23,121,23z"/>
</svg>
